<svg version="1.1" xmlns="http://www.w3.org/2000/svg" xmlns:xlink="http://www.w3.org/1999/xlink" width="800" height="800"><defs/><g transform="scale(2,2)"><g id="background-042f6590"><rect fill="white" stroke="none" x="0" y="0" width="400" height="400" class="dcg-svg-background"/></g><g id="graphpaper-042f6590"><g id="grid-042f6590"><g><path fill="none" stroke="rgb(0,0,0)" class="dcg-svg-minor-gridline" paint-order="fill stroke markers" d=" M 19.5 0 L 19.5 400" stroke-opacity="0.2" stroke-miterlimit="10" stroke-dasharray=""/><path fill="none" stroke="rgb(0,0,0)" class="dcg-svg-minor-gridline" paint-order="fill stroke markers" d=" M 39.5 0 L 39.5 400" stroke-opacity="0.2" stroke-miterlimit="10" stroke-dasharray=""/><path fill="none" stroke="rgb(0,0,0)" class="dcg-svg-minor-gridline" paint-order="fill stroke markers" d=" M 59.5 0 L 59.5 400" stroke-opacity="0.2" stroke-miterlimit="10" stroke-dasharray=""/><path fill="none" stroke="rgb(0,0,0)" class="dcg-svg-minor-gridline" paint-order="fill stroke markers" d=" M 79.5 0 L 79.5 400" stroke-opacity="0.2" stroke-miterlimit="10" stroke-dasharray=""/><path fill="none" stroke="rgb(0,0,0)" class="dcg-svg-minor-gridline" paint-order="fill stroke markers" d=" M 99.5 0 L 99.5 400" stroke-opacity="0.2" stroke-miterlimit="10" stroke-dasharray=""/><path fill="none" stroke="rgb(0,0,0)" class="dcg-svg-minor-gridline" paint-order="fill stroke markers" d=" M 119.5 0 L 119.5 400" stroke-opacity="0.2" stroke-miterlimit="10" stroke-dasharray=""/><path fill="none" stroke="rgb(0,0,0)" class="dcg-svg-minor-gridline" paint-order="fill stroke markers" d=" M 139.5 0 L 139.5 400" stroke-opacity="0.2" stroke-miterlimit="10" stroke-dasharray=""/><path fill="none" stroke="rgb(0,0,0)" class="dcg-svg-minor-gridline" paint-order="fill stroke markers" d=" M 159.5 0 L 159.5 400" stroke-opacity="0.2" stroke-miterlimit="10" stroke-dasharray=""/><path fill="none" stroke="rgb(0,0,0)" class="dcg-svg-minor-gridline" paint-order="fill stroke markers" d=" M 179.5 0 L 179.5 400" stroke-opacity="0.2" stroke-miterlimit="10" stroke-dasharray=""/><path fill="none" stroke="rgb(0,0,0)" class="dcg-svg-minor-gridline" paint-order="fill stroke markers" d=" M 219.5 0 L 219.5 400" stroke-opacity="0.2" stroke-miterlimit="10" stroke-dasharray=""/><path fill="none" stroke="rgb(0,0,0)" class="dcg-svg-minor-gridline" paint-order="fill stroke markers" d=" M 239.5 0 L 239.5 400" stroke-opacity="0.2" stroke-miterlimit="10" stroke-dasharray=""/><path fill="none" stroke="rgb(0,0,0)" class="dcg-svg-minor-gridline" paint-order="fill stroke markers" d=" M 259.5 0 L 259.5 400" stroke-opacity="0.2" stroke-miterlimit="10" stroke-dasharray=""/><path fill="none" stroke="rgb(0,0,0)" class="dcg-svg-minor-gridline" paint-order="fill stroke markers" d=" M 279.5 0 L 279.5 400" stroke-opacity="0.2" stroke-miterlimit="10" stroke-dasharray=""/><path fill="none" stroke="rgb(0,0,0)" class="dcg-svg-minor-gridline" paint-order="fill stroke markers" d=" M 299.5 0 L 299.5 400" stroke-opacity="0.2" stroke-miterlimit="10" stroke-dasharray=""/><path fill="none" stroke="rgb(0,0,0)" class="dcg-svg-minor-gridline" paint-order="fill stroke markers" d=" M 319.5 0 L 319.5 400" stroke-opacity="0.2" stroke-miterlimit="10" stroke-dasharray=""/><path fill="none" stroke="rgb(0,0,0)" class="dcg-svg-minor-gridline" paint-order="fill stroke markers" d=" M 339.5 0 L 339.5 400" stroke-opacity="0.2" stroke-miterlimit="10" stroke-dasharray=""/><path fill="none" stroke="rgb(0,0,0)" class="dcg-svg-minor-gridline" paint-order="fill stroke markers" d=" M 359.5 0 L 359.5 400" stroke-opacity="0.2" stroke-miterlimit="10" stroke-dasharray=""/><path fill="none" stroke="rgb(0,0,0)" class="dcg-svg-minor-gridline" paint-order="fill stroke markers" d=" M 379.5 0 L 379.5 400" stroke-opacity="0.2" stroke-miterlimit="10" stroke-dasharray=""/><path fill="none" stroke="rgb(0,0,0)" class="dcg-svg-minor-gridline" paint-order="fill stroke markers" d=" M 399.5 0 L 399.5 400" stroke-opacity="0.2" stroke-miterlimit="10" stroke-dasharray=""/><path fill="none" stroke="rgb(0,0,0)" class="dcg-svg-minor-gridline" paint-order="fill stroke markers" d=" M 0 399.5 L 400 399.5" stroke-opacity="0.2" stroke-miterlimit="10" stroke-dasharray=""/><path fill="none" stroke="rgb(0,0,0)" class="dcg-svg-minor-gridline" paint-order="fill stroke markers" d=" M 0 379.5 L 400 379.5" stroke-opacity="0.2" stroke-miterlimit="10" stroke-dasharray=""/><path fill="none" stroke="rgb(0,0,0)" class="dcg-svg-minor-gridline" paint-order="fill stroke markers" d=" M 0 359.5 L 400 359.5" stroke-opacity="0.2" stroke-miterlimit="10" stroke-dasharray=""/><path fill="none" stroke="rgb(0,0,0)" class="dcg-svg-minor-gridline" paint-order="fill stroke markers" d=" M 0 339.5 L 400 339.5" stroke-opacity="0.2" stroke-miterlimit="10" stroke-dasharray=""/><path fill="none" stroke="rgb(0,0,0)" class="dcg-svg-minor-gridline" paint-order="fill stroke markers" d=" M 0 319.5 L 400 319.5" stroke-opacity="0.2" stroke-miterlimit="10" stroke-dasharray=""/><path fill="none" stroke="rgb(0,0,0)" class="dcg-svg-minor-gridline" paint-order="fill stroke markers" d=" M 0 299.5 L 400 299.5" stroke-opacity="0.2" stroke-miterlimit="10" stroke-dasharray=""/><path fill="none" stroke="rgb(0,0,0)" class="dcg-svg-minor-gridline" paint-order="fill stroke markers" d=" M 0 279.5 L 400 279.5" stroke-opacity="0.2" stroke-miterlimit="10" stroke-dasharray=""/><path fill="none" stroke="rgb(0,0,0)" class="dcg-svg-minor-gridline" paint-order="fill stroke markers" d=" M 0 259.5 L 400 259.5" stroke-opacity="0.2" stroke-miterlimit="10" stroke-dasharray=""/><path fill="none" stroke="rgb(0,0,0)" class="dcg-svg-minor-gridline" paint-order="fill stroke markers" d=" M 0 239.5 L 400 239.5" stroke-opacity="0.2" stroke-miterlimit="10" stroke-dasharray=""/><path fill="none" stroke="rgb(0,0,0)" class="dcg-svg-minor-gridline" paint-order="fill stroke markers" d=" M 0 219.5 L 400 219.5" stroke-opacity="0.2" stroke-miterlimit="10" stroke-dasharray=""/><path fill="none" stroke="rgb(0,0,0)" class="dcg-svg-minor-gridline" paint-order="fill stroke markers" d=" M 0 179.5 L 400 179.5" stroke-opacity="0.2" stroke-miterlimit="10" stroke-dasharray=""/><path fill="none" stroke="rgb(0,0,0)" class="dcg-svg-minor-gridline" paint-order="fill stroke markers" d=" M 0 159.5 L 400 159.5" stroke-opacity="0.2" stroke-miterlimit="10" stroke-dasharray=""/><path fill="none" stroke="rgb(0,0,0)" class="dcg-svg-minor-gridline" paint-order="fill stroke markers" d=" M 0 139.5 L 400 139.5" stroke-opacity="0.2" stroke-miterlimit="10" stroke-dasharray=""/><path fill="none" stroke="rgb(0,0,0)" class="dcg-svg-minor-gridline" paint-order="fill stroke markers" d=" M 0 119.5 L 400 119.5" stroke-opacity="0.2" stroke-miterlimit="10" stroke-dasharray=""/><path fill="none" stroke="rgb(0,0,0)" class="dcg-svg-minor-gridline" paint-order="fill stroke markers" d=" M 0 99.5 L 400 99.5" stroke-opacity="0.2" stroke-miterlimit="10" stroke-dasharray=""/><path fill="none" stroke="rgb(0,0,0)" class="dcg-svg-minor-gridline" paint-order="fill stroke markers" d=" M 0 79.5 L 400 79.5" stroke-opacity="0.2" stroke-miterlimit="10" stroke-dasharray=""/><path fill="none" stroke="rgb(0,0,0)" class="dcg-svg-minor-gridline" paint-order="fill stroke markers" d=" M 0 59.5 L 400 59.5" stroke-opacity="0.2" stroke-miterlimit="10" stroke-dasharray=""/><path fill="none" stroke="rgb(0,0,0)" class="dcg-svg-minor-gridline" paint-order="fill stroke markers" d=" M 0 39.5 L 400 39.5" stroke-opacity="0.2" stroke-miterlimit="10" stroke-dasharray=""/><path fill="none" stroke="rgb(0,0,0)" class="dcg-svg-minor-gridline" paint-order="fill stroke markers" d=" M 0 19.5 L 400 19.5" stroke-opacity="0.2" stroke-miterlimit="10" stroke-dasharray=""/><path fill="none" stroke="rgb(0,0,0)" class="dcg-svg-major-gridline" paint-order="fill stroke markers" d=" M 99.5 0 L 99.5 400" stroke-opacity="0.2500000000000001" stroke-miterlimit="10" stroke-dasharray=""/><path fill="none" stroke="rgb(0,0,0)" class="dcg-svg-major-gridline" paint-order="fill stroke markers" d=" M 299.5 0 L 299.5 400" stroke-opacity="0.2500000000000001" stroke-miterlimit="10" stroke-dasharray=""/><path fill="none" stroke="rgb(0,0,0)" class="dcg-svg-major-gridline" paint-order="fill stroke markers" d=" M 399.5 0 L 399.5 400" stroke-opacity="0.2500000000000001" stroke-miterlimit="10" stroke-dasharray=""/><path fill="none" stroke="rgb(0,0,0)" class="dcg-svg-major-gridline" paint-order="fill stroke markers" d=" M 0 399.5 L 400 399.5" stroke-opacity="0.2500000000000001" stroke-miterlimit="10" stroke-dasharray=""/><path fill="none" stroke="rgb(0,0,0)" class="dcg-svg-major-gridline" paint-order="fill stroke markers" d=" M 0 299.5 L 400 299.5" stroke-opacity="0.2500000000000001" stroke-miterlimit="10" stroke-dasharray=""/><path fill="none" stroke="rgb(0,0,0)" class="dcg-svg-major-gridline" paint-order="fill stroke markers" d=" M 0 99.5 L 400 99.5" stroke-opacity="0.2500000000000001" stroke-miterlimit="10" stroke-dasharray=""/></g></g><g id="axis-042f6590"><g id="yaxis-042f6590"><title>Y axis</title><g><path fill="none" stroke="rgb(0,0,0)" class="dcg-svg-axis-line" paint-order="fill stroke markers" d=" M 199 0 L 199 400" stroke-opacity="0.9" stroke-miterlimit="10" stroke-width="1.5" stroke-dasharray=""/></g></g><g id="xaxis-042f6590"><title>X axis</title><g><path fill="none" stroke="rgb(0,0,0)" class="dcg-svg-axis-line" paint-order="fill stroke markers" d=" M 0 200 L 400 200" stroke-opacity="0.9" stroke-miterlimit="10" stroke-width="1.5" stroke-dasharray=""/></g></g><g><g class="dcg-svg-axis-value"><text fill="none" stroke="#ffffff" font-family="Arial" font-size="14px" font-style="normal" font-weight="normal" text-decoration="normal" x="190.11300761951722" y="215.4766913419224" text-anchor="middle" stroke-miterlimit="2" stroke-width="3" stroke-dasharray="">0</text><text fill="#000000" stroke="none" font-family="Arial" font-size="14px" font-style="normal" font-weight="normal" text-decoration="normal" x="190.11300761951722" y="215.4766913419224" text-anchor="middle">0</text></g><g class="dcg-svg-axis-value"><text fill="none" stroke="#ffffff" font-family="Arial" font-size="14px" font-style="normal" font-weight="normal" text-decoration="normal" x="96.67501933826722" y="215.4766913419224" text-anchor="middle" stroke-miterlimit="2" stroke-width="3" stroke-dasharray="">-5</text><text fill="#000000" stroke="none" font-family="Arial" font-size="14px" font-style="normal" font-weight="normal" text-decoration="normal" x="96.67501933826722" y="215.4766913419224" text-anchor="middle">-5</text></g><g class="dcg-svg-axis-value"><text fill="none" stroke="#ffffff" font-family="Arial" font-size="14px" font-style="normal" font-weight="normal" text-decoration="normal" x="299.00607402576725" y="215.4766913419224" text-anchor="middle" stroke-miterlimit="2" stroke-width="3" stroke-dasharray="">5</text><text fill="#000000" stroke="none" font-family="Arial" font-size="14px" font-style="normal" font-weight="normal" text-decoration="normal" x="299.00607402576725" y="215.4766913419224" text-anchor="middle">5</text></g><g class="dcg-svg-axis-value dcg-svg-offcenter-axis-value"><text fill="none" stroke="#ffffff" font-family="Arial" font-size="14px" font-style="normal" font-weight="normal" text-decoration="normal" x="389.2138671875" y="215.4766913419224" text-anchor="middle" stroke-miterlimit="2" stroke-width="3" stroke-dasharray="">10</text><text fill="#000000" stroke="none" font-family="Arial" font-size="14px" font-style="normal" font-weight="normal" text-decoration="normal" x="389.2138671875" y="215.4766913419224" text-anchor="middle">10</text></g><g class="dcg-svg-axis-value dcg-svg-offcenter-axis-value"><text fill="none" stroke="#ffffff" font-family="Arial" font-size="14px" font-style="normal" font-weight="normal" text-decoration="normal" x="183.88888652576722" y="393.808" text-anchor="middle" stroke-miterlimit="2" stroke-width="3" stroke-dasharray="">-10</text><text fill="#000000" stroke="none" font-family="Arial" font-size="14px" font-style="normal" font-weight="normal" text-decoration="normal" x="183.88888652576722" y="393.808" text-anchor="middle">-10</text></g><g class="dcg-svg-axis-value"><text fill="none" stroke="#ffffff" font-family="Arial" font-size="14px" font-style="normal" font-weight="normal" text-decoration="normal" x="187.78195293201722" y="303.4766913419224" text-anchor="middle" stroke-miterlimit="2" stroke-width="3" stroke-dasharray="">-5</text><text fill="#000000" stroke="none" font-family="Arial" font-size="14px" font-style="normal" font-weight="normal" text-decoration="normal" x="187.78195293201722" y="303.4766913419224" text-anchor="middle">-5</text></g><g class="dcg-svg-axis-value"><text fill="none" stroke="#ffffff" font-family="Arial" font-size="14px" font-style="normal" font-weight="normal" text-decoration="normal" x="190.11300761951722" y="103.4766913419224" text-anchor="middle" stroke-miterlimit="2" stroke-width="3" stroke-dasharray="">5</text><text fill="#000000" stroke="none" font-family="Arial" font-size="14px" font-style="normal" font-weight="normal" text-decoration="normal" x="190.11300761951722" y="103.4766913419224" text-anchor="middle">5</text></g></g></g></g><g id="expressions-042f6590"><g id="sketch-042f6590"><title>Expression 1</title><path fill="#c74440" stroke="none" paint-order="stroke fill markers" d="" fill-opacity="0.4"/><g><path fill="none" stroke="#c74440" class="dcg-svg-curve" paint-order="fill stroke markers" d=" M 0 222.7884665470936 L 0 222.7884665470936 L 1.953125 221.65029237700733 L 4.00390625 220.77586460948243 L 6.15234375 220.15311245660195 L 8.3984375 219.78073367959183 L 10.64453125 219.66914036047518 L 12.890625 219.81115500849558 L 15.13671875 220.21592871079122 L 17.28515625 220.87362467068442 L 19.23828125 221.73682611847386 L 21.09375 222.83747349292497 L 22.8515625 224.19088898727338 L 24.51171875 225.81920249903285 L 26.07421875 227.75113712537524 L 27.5390625 230.02184537532813 L 28.90625 232.67254732559613 L 30.078125 235.48743998491602 L 31.15234375 238.6531671916173 L 32.12890625 242.1751129866264 L 33.10546875 246.51938970822638 L 33.984375 251.3818592810623 L 34.86328125 257.495116939096 L 35.64453125 264.40275409805696 L 36.42578125 273.3121688736411 L 37.109375 283.51509503966355 L 37.79296875 297.13198510544726 L 38.37890625 313.0164707804247 L 38.96484375000003 335.22579480641355 L 39.45312500000003 361.80782554115274 L 39.94140625 401.507683349679 L 39.97303688616877 405.5" stroke-linecap="round" stroke-linejoin="round" stroke-miterlimit="10" stroke-width="2.5" stroke-dasharray=""/></g><g><path fill="none" stroke="#c74440" class="dcg-svg-curve" paint-order="fill stroke markers" d=" M 43.90295297314674 -5.5 L 43.90295297314674 -5.5 L 44.23828125 26.260421517660575 L 44.7265625 56.3499732108333 L 45.3125 80.97101078597079 L 45.8984375 98.29860097834296 L 46.58203125 112.96960575479801 L 47.265625 123.85355259634878 L 48.046875 133.2825167140223 L 48.828125 140.54535414884995 L 49.70703125 146.9386748234549 L 50.68359375 152.49889864018044 L 51.66015625 156.90614834977012 L 52.734375 160.79420032953055 L 53.90625 164.1956825138867 L 55.17578125 167.1517442685267 L 56.54296875 169.70548004442045 L 58.0078125 171.89803894537357 L 59.66796875 173.86983828454999 L 61.42578125 175.5048615366726 L 63.28125 176.8405960710573 L 65.234375 177.90459977688943 L 67.28515625 178.7150320981371 L 69.43359375 179.28055356527975 L 71.6796875 179.5993791063738 L 73.92578125 179.6601790449413 L 76.17187499999999 179.46685566718403 L 78.41796875 179.00690046080933 L 80.46875 178.32823689089037 L 82.421875 177.41459257191843 L 84.27734375 176.25550202930748 L 86.03515625 174.83278012835518 L 87.6953125 173.1207832652811 L 89.2578125 171.0863724890511 L 90.72265625 168.68877533774457 L 91.9921875 166.1023691099289 L 93.1640625 163.1578615513286 L 94.23828125 159.83429466148993 L 95.21484375 156.12126433134506 L 96.19140625 151.51831066258526 L 97.0703125 146.33566406931533 L 97.8515625 140.58683873279003 L 98.6328125 133.33550892128358 L 99.31640625 125.2499150258032 L 100 114.80663896265264 L 100.5859375 103.10067598533905 L 101.171875 87.53685264384917 L 101.7578125 65.85537657367598 L 102.24609375 40.02626976531482 L 102.734375 1.694640960269794 L 102.79391477405376 -5.5" stroke-linecap="round" stroke-linejoin="round" stroke-miterlimit="10" stroke-width="2.5" stroke-dasharray=""/></g><g><path fill="none" stroke="#c74440" class="dcg-svg-curve" paint-order="fill stroke markers" d=" M 106.73188477147188 405.5 L 106.73188477147188 405.5 L 107.03125 376.0304103942994 L 107.51953125 344.9925422511442 L 108.10546875 319.73216654820726 L 108.69140625 302.02782213899616 L 109.375 287.08482159187906 L 110.05859375 276.0268027426109 L 110.83984375 266.4660376932819 L 111.62109375 259.1136546504578 L 112.5 252.6500936327175 L 113.4765625 247.03527907786713 L 114.453125 242.58901771939912 L 115.52734375 238.6696396411208 L 116.69921875 235.243083864437 L 117.96875 232.26694706975184 L 119.3359375 229.69708791867328 L 120.80078125 227.49150675427143 L 122.4609375 225.50852895280164 L 124.21875 223.86446268307515 L 126.07421875 222.52127880055002 L 128.02734375 221.4509993187948 L 130.078125 220.63512764318105 L 132.2265625 220.06471784838752 L 134.47265625 219.7412933519353 L 136.71875 219.67610642922702 L 138.96484375 219.86497266690645 L 141.2109375 220.320107250018 L 143.26171875 220.99375423835286 L 145.21484375 221.90173933565572 L 147.0703125 223.0542520541464 L 148.828125 224.46914960983446 L 150.48828125 226.17167045364488 L 152.05078125 228.19444112122727 L 153.515625 230.57757769930964 L 154.78515625 233.14734460733888 L 155.95703125 236.07149647626446 L 157.03125 239.37020755634722 L 158.0078125 243.05305742701853 L 158.984375 247.6150143009404 L 159.86328125 252.74671556033917 L 160.64453125 258.4330740742128 L 161.42578125 265.59665889899793 L 162.109375 273.5726331772546 L 162.79296875 283.8559627557221 L 163.37890625 295.35808469101926 L 163.96484375 310.6108153780636 L 164.55078125 331.78300440428717 L 165.0390625 356.89071117600463 L 165.52734375 393.92375624526085 L 165.62731493295456 405.5" stroke-linecap="round" stroke-linejoin="round" stroke-miterlimit="10" stroke-width="2.5" stroke-dasharray=""/></g><g><path fill="none" stroke="#c74440" class="dcg-svg-curve" paint-order="fill stroke markers" d=" M 169.56411069084035 -5.5 L 169.56411069084035 -5.5 L 169.921875 27.732821412483133 L 170.41015625 57.35406643598358 L 170.99609375 81.65744199715544 L 171.58203125 98.79695358571385 L 172.265625 113.33168907015396 L 172.94921875 124.12817528473927 L 173.73046875 133.49076612164973 L 174.51171875 140.70842431510988 L 175.390625 147.06625105775328 L 176.3671875 152.5988512736747 L 177.34375 156.9863377928856 L 178.41796875 160.85850460129228 L 179.58984375 164.2472610920134 L 180.859375 167.19312609413944 L 182.2265625 169.73866649243138 L 183.69140625 171.92460200229667 L 185.3515625 173.89071223255957 L 187.109375 175.52113039190326 L 188.96484375 176.85306914778215 L 190.91796875 177.9138731253222 L 192.96875 178.72153038703686 L 195.1171875 179.2845561682579 L 197.36328125 179.60103194692982 L 199.609375 179.6595885891205 L 201.85546875 179.46398415715962 L 204.1015625 179.00155988607204 L 206.15234375 178.32032499627078 L 208.10546875 177.40377806727784 L 209.9609375 176.24131172113016 L 211.71875 174.8145719635515 L 213.37890625 173.09770629597665 L 214.94140625 171.05731124883317 L 216.40625 168.652275105358 L 217.67578125 166.0573034175181 L 218.84765625 163.10231001346156 L 219.921875 159.765929364241 L 220.8984375 156.03732730413216 L 221.875 151.4132006583016 L 222.75390625 146.2042135497975 L 223.53515625 140.42305056813527 L 224.31640625 133.12623046268294 L 225 124.9837079748723 L 225.68359375 114.45719501254678 L 226.26953125 102.6448911835757 L 226.85546875 86.91828339955634 L 227.44140625 64.96921174032246 L 227.9296875 38.75907063575184 L 228.41796875 -0.26333559374296556 L 228.46035552923792 -5.5" stroke-linecap="round" stroke-linejoin="round" stroke-miterlimit="10" stroke-width="2.5" stroke-dasharray=""/></g><g><path fill="none" stroke="#c74440" class="dcg-svg-curve" paint-order="fill stroke markers" d=" M 232.39370140121105 405.5 L 232.39370140121105 405.5 L 232.71484375 374.50730904751015 L 233.203125 343.95997777973855 L 233.7890625 319.02966294109666 L 234.375 301.5195245064637 L 235.05859375 286.71656837663477 L 235.7421875 275.74809227070085 L 236.5234375 266.25507582653177 L 237.3046875 258.94869319765786 L 238.18359375 252.5211972690725 L 239.16015625 246.93440010816147 L 240.13671875 242.50815308865498 L 241.2109375 238.60484134360615 L 242.3828125 235.1911415288817 L 243.65234375 232.22529518730028 L 245.01953125 229.6636989790488 L 246.484375 227.46479009943093 L 248.14453125 225.4875387227587 L 249.90234375 223.84810404220286 L 251.7578125 222.50873478407973 L 253.7109375 221.4416683415523 L 255.76171875 220.6285809004338 L 257.91015625 220.06067272027352 L 260.15625 219.7396011649781 L 262.40234375 219.67665813954017 L 264.6484375 219.8678035498477 L 266.89453125 220.32540253146627 L 268.9453125 221.00161348672418 L 270.8984375 221.91249039167755 L 272.75390625 223.06836365619193 L 274.51171875 224.48725784406923 L 276.171875 226.19461808434883 L 277.734375 228.22333220537624 L 279.19921875 230.613850860035 L 280.46875 233.1921102744195 L 281.640625 236.12664909805392 L 282.71484375 239.4380402935423 L 283.69140625 243.1362824761505 L 284.66796875 247.71914153289217 L 285.546875 252.8768077863508 L 286.328125 258.5949905868565 L 287.109375 265.80325664453835 L 287.79296875 273.83502005056425 L 288.4765625 284.199697225232 L 289.0625 295.80540866430727 L 289.6484375 311.21607773187714 L 290.234375 332.64648026128 L 290.72265625 358.11932349709775 L 291.2109375 395.80813410877204 L 291.29284008281684 405.5" stroke-linecap="round" stroke-linejoin="round" stroke-miterlimit="10" stroke-width="2.5" stroke-dasharray=""/></g><g><path fill="none" stroke="#c74440" class="dcg-svg-curve" paint-order="fill stroke markers" d=" M 295.2354722469445 -5.5 L 295.2354722469445 -5.5 L 295.5078125 21.82694629669163 L 295.99609375 53.3444998875234 L 296.58203125 78.92630442608802 L 297.16796875 96.81917702824762 L 297.8515625 111.89780154307992 L 298.53515625 123.04237006583013 L 299.31640625 132.66851931351204 L 300.09765625 140.06524145011537 L 300.9765625 146.5635291564511 L 301.953125 152.20529679430456 L 302.9296875 156.67079740335356 L 304.00390625 160.60560961977194 L 305.17578125 164.04450831983002 L 306.4453125 167.0305197642872 L 307.8125 169.60830425273892 L 309.27734375 171.82028234129587 L 310.9375 173.80874799400343 L 312.6953125 175.45725111301678 L 314.55078125 176.80408779575384 L 316.50390625 177.87744278041814 L 318.5546875 178.69597837670034 L 320.703125 179.2687805754343 L 322.94921875 179.59445414525933 L 325.1953125 179.66178474920156 L 327.44140625 179.47509470287238 L 329.6875 179.02231191281658 L 331.8359375 178.31238610808532 L 333.7890625 177.3929310099825 L 335.64453125 176.22708100860908 L 337.40234375 174.79631246928707 L 339.0625 173.07456285316516 L 340.625 171.02816250374173 L 342.08984375 168.61565802187363 L 343.359375 166.0120832291095 L 344.53125 163.0465529068632 L 345.60546875 159.69728940999286 L 346.58203125 155.95302276806274 L 347.55859375 151.30758282603085 L 348.4375 146.07206032720785 L 349.21875 140.25829285598667 L 350 132.9155610809712 L 350.68359375 124.71551518296927 L 351.3671875 114.10477633593659 L 351.953125 102.18468667480442 L 352.5390625 86.29273896395526 L 353.125 64.07109661973215 L 353.61328125 37.471431499413654 L 354.1015625 -2.26062970438889 L 354.12720174726974 -5.5" stroke-linecap="round" stroke-linejoin="round" stroke-miterlimit="10" stroke-width="2.5" stroke-dasharray=""/></g><g><path fill="none" stroke="#c74440" class="dcg-svg-curve" paint-order="fill stroke markers" d=" M 358.0551107819821 405.5 L 358.0551107819821 405.5 L 358.3984375 373.0104601017588 L 358.88671875 342.94212374283654 L 359.47265625 318.3354490071597 L 360.05859375 301.0163498809317 L 360.7421875 286.35149013850634 L 361.42578125 275.4714836910087 L 362.20703125 266.0455077260589 L 362.98828125 258.78470304829614 L 363.8671875 252.39297856389666 L 364.84375 246.83399645671398 L 365.8203125 242.42763479333775 L 366.89453125 238.54029637996064 L 368.06640625 235.13938567667515 L 369.3359375 232.1837817186672 L 370.703125 229.63041380110283 L 372.16796875 227.4381521361964 L 373.828125 225.46660805469838 L 375.5859375 223.8317913825181 L 377.44140625 222.4962270904345 L 379.39453125 221.43236686572195 L 381.4453125 220.62205895689226 L 383.59375 220.05664935183083 L 385.83984375 219.73792910594256 L 388.0859375 219.67722966511226 L 390.33203125 219.870655204845 L 392.578125 220.3307209648563 L 394.62890625 221.00949963961017 L 396.58203125 221.9232738661352 L 398.4375 223.08251546469683 L 400 224.3292724423585" stroke-linecap="round" stroke-linejoin="round" stroke-miterlimit="10" stroke-width="2.5" stroke-dasharray=""/></g></g><g id="sketch-042f6590"><title>Expression 2</title><path fill="none" stroke="#2d70b3" class="dcg-svg-point" paint-order="fill stroke markers" d=" M 198.90607402576723 179.5686913419224 L 198.90607402576723 179.7686913419224 L 199.1060740257672 179.7686913419224 L 199.1060740257672 179.5686913419224" stroke-linecap="round" stroke-linejoin="round" stroke-miterlimit="10" stroke-width="7.5" stroke-dasharray=""/></g><g id="sketch-042f6590"><title>Expression 3</title><path fill="none" stroke="#388c46" class="dcg-svg-point" paint-order="fill stroke markers" d=" M 136.07422095397138 219.5686913419224 L 136.07422095397138 219.7686913419224 L 136.27422095397137 219.7686913419224 L 136.27422095397137 219.5686913419224" stroke-linecap="round" stroke-linejoin="round" stroke-miterlimit="10" stroke-width="7.5" stroke-dasharray=""/></g><g id="sketch-042f6590"><title>Expression 4</title><path fill="none" stroke="#6042a6" class="dcg-svg-point" paint-order="fill stroke markers" d=" M 73.2423678821755 179.5686913419224 L 73.2423678821755 179.7686913419224 L 73.44236788217549 179.7686913419224 L 73.44236788217549 179.5686913419224" stroke-linecap="round" stroke-linejoin="round" stroke-miterlimit="10" stroke-width="7.5" stroke-dasharray=""/></g><g id="sketch-042f6590"><title>Expression 5</title><path fill="none" stroke="#c74440" class="dcg-svg-point" paint-order="fill stroke markers" d=" M 10.410514810379647 219.5686913419224 L 10.410514810379647 219.7686913419224 L 10.610514810379646 219.7686913419224 L 10.610514810379646 219.5686913419224" stroke-linecap="round" stroke-linejoin="round" stroke-miterlimit="10" stroke-width="7.5" stroke-dasharray=""/></g></g><g id="labels-042f6590"><g transform="rotate(0,0,0) translate(209,167.5)"><g class="dcg-svg-label"><path fill="none" stroke="#FFF" paint-order="fill stroke markers" d=" M 9.753843548228438 2 L 9.753843548228438 1.9999999999999982 A 5.768103127340669 10.452956989247312 0 0 0 9.753843548228438 21.25 L 8.808252871615217 21.25 L 8.808252871615215 21.25 A 7.0919300745991825 10.452956989247312 0 0 1 8.808252871615215 1.9999999999999982 Z" stroke-linecap="round" stroke-linejoin="round" stroke-miterlimit="10" stroke-width="3" stroke-dasharray=""/><text fill="none" stroke="#FFF" font-family="Symbola, &quot;Times New Roman&quot;, serif" font-size="17.71px" font-style="normal" font-weight="400" text-decoration="normal" x="11.895833969116211" y="17.066288653488158" text-anchor="start" stroke-linecap="round" stroke-linejoin="round" stroke-miterlimit="2" stroke-width="3" stroke-dasharray="">0</text><text fill="none" stroke="#FFF" font-family="Symbola, &quot;Times New Roman&quot;, serif" font-size="17.71px" font-style="normal" font-weight="400" text-decoration="normal" x="21.072917938232422" y="17.066288653488158" text-anchor="start" stroke-linecap="round" stroke-linejoin="round" stroke-miterlimit="2" stroke-width="3" stroke-dasharray="">,</text><text fill="none" stroke="#FFF" font-family="Symbola, &quot;Times New Roman&quot;, serif" font-size="17.71px" font-style="normal" font-weight="400" text-decoration="normal" x="25.5" y="17.066288653488158" text-anchor="start" stroke-linecap="round" stroke-linejoin="round" stroke-miterlimit="2" stroke-width="3" stroke-dasharray=""> </text><text fill="none" stroke="#FFF" font-family="Symbola, &quot;Times New Roman&quot;, serif" font-size="17.71px" font-style="normal" font-weight="400" text-decoration="normal" x="30.08333396911621" y="17.066288653488158" text-anchor="start" stroke-linecap="round" stroke-linejoin="round" stroke-miterlimit="2" stroke-width="3" stroke-dasharray="">1</text><path fill="none" stroke="#FFF" paint-order="fill stroke markers" d=" M 41.246158359120194 2 L 41.246158359120194 2 A 5.768103127340669 10.452956989247312 0 0 1 41.246158359120194 21.25 L 42.191749035733416 21.25 L 42.19174903573342 21.25 A 7.0919300745991825 10.452956989247312 0 0 0 42.19174903573342 1.9999999999999982 Z" stroke-linecap="round" stroke-linejoin="round" stroke-miterlimit="10" stroke-width="3" stroke-dasharray=""/><path fill="rgb(45, 112, 179)" stroke="none" paint-order="stroke fill markers" d=" M 9.753843548228438 2 L 9.753843548228438 1.9999999999999982 A 5.768103127340669 10.452956989247312 0 0 0 9.753843548228438 21.25 L 8.808252871615217 21.25 L 8.808252871615215 21.25 A 7.0919300745991825 10.452956989247312 0 0 1 8.808252871615215 1.9999999999999982 Z"/><text fill="rgb(45, 112, 179)" stroke="none" font-family="Symbola, &quot;Times New Roman&quot;, serif" font-size="17.71px" font-style="normal" font-weight="400" text-decoration="normal" x="11.895833969116211" y="17.066288653488158" text-anchor="start">0</text><text fill="rgb(45, 112, 179)" stroke="none" font-family="Symbola, &quot;Times New Roman&quot;, serif" font-size="17.71px" font-style="normal" font-weight="400" text-decoration="normal" x="21.072917938232422" y="17.066288653488158" text-anchor="start">,</text><text fill="rgb(45, 112, 179)" stroke="none" font-family="Symbola, &quot;Times New Roman&quot;, serif" font-size="17.71px" font-style="normal" font-weight="400" text-decoration="normal" x="25.5" y="17.066288653488158" text-anchor="start"> </text><text fill="rgb(45, 112, 179)" stroke="none" font-family="Symbola, &quot;Times New Roman&quot;, serif" font-size="17.71px" font-style="normal" font-weight="400" text-decoration="normal" x="30.08333396911621" y="17.066288653488158" text-anchor="start">1</text><path fill="rgb(45, 112, 179)" stroke="none" paint-order="stroke fill markers" d=" M 41.246158359120194 2 L 41.246158359120194 2 A 5.768103127340669 10.452956989247312 0 0 1 41.246158359120194 21.25 L 42.191749035733416 21.25 L 42.19174903573342 21.25 A 7.0919300745991825 10.452956989247312 0 0 0 42.19174903573342 1.9999999999999982 Z"/></g></g><g transform="rotate(0,0,0) translate(141,225)"><g class="dcg-svg-label"><path fill="none" stroke="#FFF" paint-order="fill stroke markers" d=" M 9.753843548228438 2 L 9.753843548228438 1.9999999999999982 A 5.768103127340669 10.452956989247312 0 0 0 9.753843548228438 21.25 L 8.808252871615217 21.25 L 8.808252871615215 21.25 A 7.0919300745991825 10.452956989247312 0 0 1 8.808252871615215 1.9999999999999982 Z" stroke-linecap="round" stroke-linejoin="round" stroke-miterlimit="10" stroke-width="3" stroke-dasharray=""/><text fill="none" stroke="#FFF" font-family="Symbola, &quot;Times New Roman&quot;, serif" font-size="17.71px" font-style="normal" font-weight="400" text-decoration="normal" x="11.739583969116211" y="17.066288653488158" text-anchor="start" stroke-linecap="round" stroke-linejoin="round" stroke-miterlimit="2" stroke-width="3" stroke-dasharray="">−</text><text fill="none" stroke="#FFF" font-family="&quot;Times New Roman&quot;, Symbola, serif" font-size="17.71px" font-style="normal" font-weight="400" text-decoration="normal" x="25.5" y="17.066288653488158" text-anchor="start" stroke-linecap="round" stroke-linejoin="round" stroke-miterlimit="2" stroke-width="3" stroke-dasharray="">π</text><text fill="none" stroke="#FFF" font-family="Symbola, &quot;Times New Roman&quot;, serif" font-size="17.71px" font-style="normal" font-weight="400" text-decoration="normal" x="34.44791793823242" y="17.066288653488158" text-anchor="start" stroke-linecap="round" stroke-linejoin="round" stroke-miterlimit="2" stroke-width="3" stroke-dasharray="">,</text><text fill="none" stroke="#FFF" font-family="Symbola, &quot;Times New Roman&quot;, serif" font-size="17.71px" font-style="normal" font-weight="400" text-decoration="normal" x="38.875" y="17.066288653488158" text-anchor="start" stroke-linecap="round" stroke-linejoin="round" stroke-miterlimit="2" stroke-width="3" stroke-dasharray=""> </text><text fill="none" stroke="#FFF" font-family="Symbola, &quot;Times New Roman&quot;, serif" font-size="17.71px" font-style="normal" font-weight="400" text-decoration="normal" x="43.302085876464844" y="17.066288653488158" text-anchor="start" stroke-linecap="round" stroke-linejoin="round" stroke-miterlimit="2" stroke-width="3" stroke-dasharray="">−</text><text fill="none" stroke="#FFF" font-family="Symbola, &quot;Times New Roman&quot;, serif" font-size="17.71px" font-style="normal" font-weight="400" text-decoration="normal" x="57.21875" y="17.066288653488158" text-anchor="start" stroke-linecap="round" stroke-linejoin="round" stroke-miterlimit="2" stroke-width="3" stroke-dasharray="">1</text><path fill="none" stroke="#FFF" paint-order="fill stroke markers" d=" M 68.38157629735261 2 L 68.38157629735262 2 A 5.768103127340669 10.452956989247312 0 0 1 68.38157629735262 21.25 L 69.32716697396584 21.25 L 69.32716697396584 21.25 A 7.0919300745991825 10.452956989247312 0 0 0 69.32716697396584 1.9999999999999982 Z" stroke-linecap="round" stroke-linejoin="round" stroke-miterlimit="10" stroke-width="3" stroke-dasharray=""/><path fill="rgb(56, 140, 70)" stroke="none" paint-order="stroke fill markers" d=" M 9.753843548228438 2 L 9.753843548228438 1.9999999999999982 A 5.768103127340669 10.452956989247312 0 0 0 9.753843548228438 21.25 L 8.808252871615217 21.25 L 8.808252871615215 21.25 A 7.0919300745991825 10.452956989247312 0 0 1 8.808252871615215 1.9999999999999982 Z"/><text fill="rgb(56, 140, 70)" stroke="none" font-family="Symbola, &quot;Times New Roman&quot;, serif" font-size="17.71px" font-style="normal" font-weight="400" text-decoration="normal" x="11.739583969116211" y="17.066288653488158" text-anchor="start">−</text><text fill="rgb(56, 140, 70)" stroke="none" font-family="&quot;Times New Roman&quot;, Symbola, serif" font-size="17.71px" font-style="normal" font-weight="400" text-decoration="normal" x="25.5" y="17.066288653488158" text-anchor="start">π</text><text fill="rgb(56, 140, 70)" stroke="none" font-family="Symbola, &quot;Times New Roman&quot;, serif" font-size="17.71px" font-style="normal" font-weight="400" text-decoration="normal" x="34.44791793823242" y="17.066288653488158" text-anchor="start">,</text><text fill="rgb(56, 140, 70)" stroke="none" font-family="Symbola, &quot;Times New Roman&quot;, serif" font-size="17.71px" font-style="normal" font-weight="400" text-decoration="normal" x="38.875" y="17.066288653488158" text-anchor="start"> </text><text fill="rgb(56, 140, 70)" stroke="none" font-family="Symbola, &quot;Times New Roman&quot;, serif" font-size="17.71px" font-style="normal" font-weight="400" text-decoration="normal" x="43.302085876464844" y="17.066288653488158" text-anchor="start">−</text><text fill="rgb(56, 140, 70)" stroke="none" font-family="Symbola, &quot;Times New Roman&quot;, serif" font-size="17.71px" font-style="normal" font-weight="400" text-decoration="normal" x="57.21875" y="17.066288653488158" text-anchor="start">1</text><path fill="rgb(56, 140, 70)" stroke="none" paint-order="stroke fill markers" d=" M 68.38157629735261 2 L 68.38157629735262 2 A 5.768103127340669 10.452956989247312 0 0 1 68.38157629735262 21.25 L 69.32716697396584 21.25 L 69.32716697396584 21.25 A 7.0919300745991825 10.452956989247312 0 0 0 69.32716697396584 1.9999999999999982 Z"/></g></g><g transform="rotate(0,0,0) translate(83,167.5)"><g class="dcg-svg-label"><path fill="none" stroke="#FFF" paint-order="fill stroke markers" d=" M 9.753843548228438 2 L 9.753843548228438 1.9999999999999982 A 5.768103127340669 10.452956989247312 0 0 0 9.753843548228438 21.25 L 8.808252871615217 21.25 L 8.808252871615215 21.25 A 7.0919300745991825 10.452956989247312 0 0 1 8.808252871615215 1.9999999999999982 Z" stroke-linecap="round" stroke-linejoin="round" stroke-miterlimit="10" stroke-width="3" stroke-dasharray=""/><text fill="none" stroke="#FFF" font-family="Symbola, &quot;Times New Roman&quot;, serif" font-size="17.71px" font-style="normal" font-weight="400" text-decoration="normal" x="11.739583969116211" y="17.066288653488158" text-anchor="start" stroke-linecap="round" stroke-linejoin="round" stroke-miterlimit="2" stroke-width="3" stroke-dasharray="">−</text><text fill="none" stroke="#FFF" font-family="Symbola, &quot;Times New Roman&quot;, serif" font-size="17.71px" font-style="normal" font-weight="400" text-decoration="normal" x="25.65625" y="17.066288653488158" text-anchor="start" stroke-linecap="round" stroke-linejoin="round" stroke-miterlimit="2" stroke-width="3" stroke-dasharray="">2</text><text fill="none" stroke="#FFF" font-family="&quot;Times New Roman&quot;, Symbola, serif" font-size="17.71px" font-style="normal" font-weight="400" text-decoration="normal" x="34.833335876464844" y="17.066288653488158" text-anchor="start" stroke-linecap="round" stroke-linejoin="round" stroke-miterlimit="2" stroke-width="3" stroke-dasharray="">π</text><text fill="none" stroke="#FFF" font-family="Symbola, &quot;Times New Roman&quot;, serif" font-size="17.71px" font-style="normal" font-weight="400" text-decoration="normal" x="43.78125" y="17.066288653488158" text-anchor="start" stroke-linecap="round" stroke-linejoin="round" stroke-miterlimit="2" stroke-width="3" stroke-dasharray="">,</text><text fill="none" stroke="#FFF" font-family="Symbola, &quot;Times New Roman&quot;, serif" font-size="17.71px" font-style="normal" font-weight="400" text-decoration="normal" x="48.208335876464844" y="17.066288653488158" text-anchor="start" stroke-linecap="round" stroke-linejoin="round" stroke-miterlimit="2" stroke-width="3" stroke-dasharray=""> </text><text fill="none" stroke="#FFF" font-family="Symbola, &quot;Times New Roman&quot;, serif" font-size="17.71px" font-style="normal" font-weight="400" text-decoration="normal" x="52.79166793823242" y="17.066288653488158" text-anchor="start" stroke-linecap="round" stroke-linejoin="round" stroke-miterlimit="2" stroke-width="3" stroke-dasharray="">1</text><path fill="none" stroke="#FFF" paint-order="fill stroke markers" d=" M 63.95449042088777 2 L 63.95449042088777 2 A 5.768103127340669 10.452956989247312 0 0 1 63.95449042088777 21.25 L 64.900081097501 21.25 L 64.900081097501 21.25 A 7.0919300745991825 10.452956989247312 0 0 0 64.900081097501 1.9999999999999982 Z" stroke-linecap="round" stroke-linejoin="round" stroke-miterlimit="10" stroke-width="3" stroke-dasharray=""/><path fill="rgb(96, 66, 166)" stroke="none" paint-order="stroke fill markers" d=" M 9.753843548228438 2 L 9.753843548228438 1.9999999999999982 A 5.768103127340669 10.452956989247312 0 0 0 9.753843548228438 21.25 L 8.808252871615217 21.25 L 8.808252871615215 21.25 A 7.0919300745991825 10.452956989247312 0 0 1 8.808252871615215 1.9999999999999982 Z"/><text fill="rgb(96, 66, 166)" stroke="none" font-family="Symbola, &quot;Times New Roman&quot;, serif" font-size="17.71px" font-style="normal" font-weight="400" text-decoration="normal" x="11.739583969116211" y="17.066288653488158" text-anchor="start">−</text><text fill="rgb(96, 66, 166)" stroke="none" font-family="Symbola, &quot;Times New Roman&quot;, serif" font-size="17.71px" font-style="normal" font-weight="400" text-decoration="normal" x="25.65625" y="17.066288653488158" text-anchor="start">2</text><text fill="rgb(96, 66, 166)" stroke="none" font-family="&quot;Times New Roman&quot;, Symbola, serif" font-size="17.71px" font-style="normal" font-weight="400" text-decoration="normal" x="34.833335876464844" y="17.066288653488158" text-anchor="start">π</text><text fill="rgb(96, 66, 166)" stroke="none" font-family="Symbola, &quot;Times New Roman&quot;, serif" font-size="17.71px" font-style="normal" font-weight="400" text-decoration="normal" x="43.78125" y="17.066288653488158" text-anchor="start">,</text><text fill="rgb(96, 66, 166)" stroke="none" font-family="Symbola, &quot;Times New Roman&quot;, serif" font-size="17.71px" font-style="normal" font-weight="400" text-decoration="normal" x="48.208335876464844" y="17.066288653488158" text-anchor="start"> </text><text fill="rgb(96, 66, 166)" stroke="none" font-family="Symbola, &quot;Times New Roman&quot;, serif" font-size="17.71px" font-style="normal" font-weight="400" text-decoration="normal" x="52.79166793823242" y="17.066288653488158" text-anchor="start">1</text><path fill="rgb(96, 66, 166)" stroke="none" paint-order="stroke fill markers" d=" M 63.95449042088777 2 L 63.95449042088777 2 A 5.768103127340669 10.452956989247312 0 0 1 63.95449042088777 21.25 L 64.900081097501 21.25 L 64.900081097501 21.25 A 7.0919300745991825 10.452956989247312 0 0 0 64.900081097501 1.9999999999999982 Z"/></g></g><g transform="rotate(0,0,0) translate(16,225)"><g class="dcg-svg-label"><path fill="none" stroke="#FFF" paint-order="fill stroke markers" d=" M 9.753843548228438 2 L 9.753843548228438 1.9999999999999982 A 5.768103127340669 10.452956989247312 0 0 0 9.753843548228438 21.25 L 8.808252871615217 21.25 L 8.808252871615215 21.25 A 7.0919300745991825 10.452956989247312 0 0 1 8.808252871615215 1.9999999999999982 Z" stroke-linecap="round" stroke-linejoin="round" stroke-miterlimit="10" stroke-width="3" stroke-dasharray=""/><text fill="none" stroke="#FFF" font-family="Symbola, &quot;Times New Roman&quot;, serif" font-size="17.71px" font-style="normal" font-weight="400" text-decoration="normal" x="11.739583969116211" y="17.066288653488158" text-anchor="start" stroke-linecap="round" stroke-linejoin="round" stroke-miterlimit="2" stroke-width="3" stroke-dasharray="">−</text><text fill="none" stroke="#FFF" font-family="Symbola, &quot;Times New Roman&quot;, serif" font-size="17.71px" font-style="normal" font-weight="400" text-decoration="normal" x="25.65625" y="17.066288653488158" text-anchor="start" stroke-linecap="round" stroke-linejoin="round" stroke-miterlimit="2" stroke-width="3" stroke-dasharray="">3</text><text fill="none" stroke="#FFF" font-family="&quot;Times New Roman&quot;, Symbola, serif" font-size="17.71px" font-style="normal" font-weight="400" text-decoration="normal" x="34.833335876464844" y="17.066288653488158" text-anchor="start" stroke-linecap="round" stroke-linejoin="round" stroke-miterlimit="2" stroke-width="3" stroke-dasharray="">π</text><text fill="none" stroke="#FFF" font-family="Symbola, &quot;Times New Roman&quot;, serif" font-size="17.71px" font-style="normal" font-weight="400" text-decoration="normal" x="43.78125" y="17.066288653488158" text-anchor="start" stroke-linecap="round" stroke-linejoin="round" stroke-miterlimit="2" stroke-width="3" stroke-dasharray="">,</text><text fill="none" stroke="#FFF" font-family="Symbola, &quot;Times New Roman&quot;, serif" font-size="17.71px" font-style="normal" font-weight="400" text-decoration="normal" x="48.208335876464844" y="17.066288653488158" text-anchor="start" stroke-linecap="round" stroke-linejoin="round" stroke-miterlimit="2" stroke-width="3" stroke-dasharray=""> </text><text fill="none" stroke="#FFF" font-family="Symbola, &quot;Times New Roman&quot;, serif" font-size="17.71px" font-style="normal" font-weight="400" text-decoration="normal" x="52.63541793823242" y="17.066288653488158" text-anchor="start" stroke-linecap="round" stroke-linejoin="round" stroke-miterlimit="2" stroke-width="3" stroke-dasharray="">−</text><text fill="none" stroke="#FFF" font-family="Symbola, &quot;Times New Roman&quot;, serif" font-size="17.71px" font-style="normal" font-weight="400" text-decoration="normal" x="66.55208587646484" y="17.066288653488158" text-anchor="start" stroke-linecap="round" stroke-linejoin="round" stroke-miterlimit="2" stroke-width="3" stroke-dasharray="">1</text><path fill="none" stroke="#FFF" paint-order="fill stroke markers" d=" M 77.71491217381745 2 L 77.71491217381747 2 A 5.768103127340669 10.452956989247312 0 0 1 77.71491217381747 21.25 L 78.66050285043069 21.25 L 78.66050285043069 21.25 A 7.0919300745991825 10.452956989247312 0 0 0 78.66050285043069 1.9999999999999982 Z" stroke-linecap="round" stroke-linejoin="round" stroke-miterlimit="10" stroke-width="3" stroke-dasharray=""/><path fill="rgb(199, 68, 64)" stroke="none" paint-order="stroke fill markers" d=" M 9.753843548228438 2 L 9.753843548228438 1.9999999999999982 A 5.768103127340669 10.452956989247312 0 0 0 9.753843548228438 21.25 L 8.808252871615217 21.25 L 8.808252871615215 21.25 A 7.0919300745991825 10.452956989247312 0 0 1 8.808252871615215 1.9999999999999982 Z"/><text fill="rgb(199, 68, 64)" stroke="none" font-family="Symbola, &quot;Times New Roman&quot;, serif" font-size="17.71px" font-style="normal" font-weight="400" text-decoration="normal" x="11.739583969116211" y="17.066288653488158" text-anchor="start">−</text><text fill="rgb(199, 68, 64)" stroke="none" font-family="Symbola, &quot;Times New Roman&quot;, serif" font-size="17.71px" font-style="normal" font-weight="400" text-decoration="normal" x="25.65625" y="17.066288653488158" text-anchor="start">3</text><text fill="rgb(199, 68, 64)" stroke="none" font-family="&quot;Times New Roman&quot;, Symbola, serif" font-size="17.71px" font-style="normal" font-weight="400" text-decoration="normal" x="34.833335876464844" y="17.066288653488158" text-anchor="start">π</text><text fill="rgb(199, 68, 64)" stroke="none" font-family="Symbola, &quot;Times New Roman&quot;, serif" font-size="17.71px" font-style="normal" font-weight="400" text-decoration="normal" x="43.78125" y="17.066288653488158" text-anchor="start">,</text><text fill="rgb(199, 68, 64)" stroke="none" font-family="Symbola, &quot;Times New Roman&quot;, serif" font-size="17.71px" font-style="normal" font-weight="400" text-decoration="normal" x="48.208335876464844" y="17.066288653488158" text-anchor="start"> </text><text fill="rgb(199, 68, 64)" stroke="none" font-family="Symbola, &quot;Times New Roman&quot;, serif" font-size="17.71px" font-style="normal" font-weight="400" text-decoration="normal" x="52.63541793823242" y="17.066288653488158" text-anchor="start">−</text><text fill="rgb(199, 68, 64)" stroke="none" font-family="Symbola, &quot;Times New Roman&quot;, serif" font-size="17.71px" font-style="normal" font-weight="400" text-decoration="normal" x="66.55208587646484" y="17.066288653488158" text-anchor="start">1</text><path fill="rgb(199, 68, 64)" stroke="none" paint-order="stroke fill markers" d=" M 77.71491217381745 2 L 77.71491217381747 2 A 5.768103127340669 10.452956989247312 0 0 1 77.71491217381747 21.25 L 78.66050285043069 21.25 L 78.66050285043069 21.25 A 7.0919300745991825 10.452956989247312 0 0 0 78.66050285043069 1.9999999999999982 Z"/></g></g></g><g id="labels-042f6590"/></g></svg>