<svg version="1.1" xmlns="http://www.w3.org/2000/svg" xmlns:xlink="http://www.w3.org/1999/xlink" width="800" height="800"><defs/><g transform="scale(2,2)"><g id="background-a584c66f"><rect fill="white" stroke="none" x="0" y="0" width="400" height="400" class="dcg-svg-background"/></g><g id="graphpaper-a584c66f"><g id="grid-a584c66f"><g><path fill="none" stroke="rgb(0,0,0)" class="dcg-svg-minor-gridline" paint-order="fill stroke markers" d=" M 20.5 0 L 20.5 400" stroke-opacity="0.2" stroke-miterlimit="10" stroke-dasharray=""/><path fill="none" stroke="rgb(0,0,0)" class="dcg-svg-minor-gridline" paint-order="fill stroke markers" d=" M 40.5 0 L 40.5 400" stroke-opacity="0.2" stroke-miterlimit="10" stroke-dasharray=""/><path fill="none" stroke="rgb(0,0,0)" class="dcg-svg-minor-gridline" paint-order="fill stroke markers" d=" M 60.5 0 L 60.5 400" stroke-opacity="0.2" stroke-miterlimit="10" stroke-dasharray=""/><path fill="none" stroke="rgb(0,0,0)" class="dcg-svg-minor-gridline" paint-order="fill stroke markers" d=" M 80.5 0 L 80.5 400" stroke-opacity="0.2" stroke-miterlimit="10" stroke-dasharray=""/><path fill="none" stroke="rgb(0,0,0)" class="dcg-svg-minor-gridline" paint-order="fill stroke markers" d=" M 100.5 0 L 100.5 400" stroke-opacity="0.2" stroke-miterlimit="10" stroke-dasharray=""/><path fill="none" stroke="rgb(0,0,0)" class="dcg-svg-minor-gridline" paint-order="fill stroke markers" d=" M 120.5 0 L 120.5 400" stroke-opacity="0.2" stroke-miterlimit="10" stroke-dasharray=""/><path fill="none" stroke="rgb(0,0,0)" class="dcg-svg-minor-gridline" paint-order="fill stroke markers" d=" M 140.5 0 L 140.5 400" stroke-opacity="0.2" stroke-miterlimit="10" stroke-dasharray=""/><path fill="none" stroke="rgb(0,0,0)" class="dcg-svg-minor-gridline" paint-order="fill stroke markers" d=" M 160.5 0 L 160.5 400" stroke-opacity="0.2" stroke-miterlimit="10" stroke-dasharray=""/><path fill="none" stroke="rgb(0,0,0)" class="dcg-svg-minor-gridline" paint-order="fill stroke markers" d=" M 180.5 0 L 180.5 400" stroke-opacity="0.2" stroke-miterlimit="10" stroke-dasharray=""/><path fill="none" stroke="rgb(0,0,0)" class="dcg-svg-minor-gridline" paint-order="fill stroke markers" d=" M 220.5 0 L 220.5 400" stroke-opacity="0.2" stroke-miterlimit="10" stroke-dasharray=""/><path fill="none" stroke="rgb(0,0,0)" class="dcg-svg-minor-gridline" paint-order="fill stroke markers" d=" M 240.5 0 L 240.5 400" stroke-opacity="0.2" stroke-miterlimit="10" stroke-dasharray=""/><path fill="none" stroke="rgb(0,0,0)" class="dcg-svg-minor-gridline" paint-order="fill stroke markers" d=" M 260.5 0 L 260.5 400" stroke-opacity="0.2" stroke-miterlimit="10" stroke-dasharray=""/><path fill="none" stroke="rgb(0,0,0)" class="dcg-svg-minor-gridline" paint-order="fill stroke markers" d=" M 280.5 0 L 280.5 400" stroke-opacity="0.2" stroke-miterlimit="10" stroke-dasharray=""/><path fill="none" stroke="rgb(0,0,0)" class="dcg-svg-minor-gridline" paint-order="fill stroke markers" d=" M 300.5 0 L 300.5 400" stroke-opacity="0.2" stroke-miterlimit="10" stroke-dasharray=""/><path fill="none" stroke="rgb(0,0,0)" class="dcg-svg-minor-gridline" paint-order="fill stroke markers" d=" M 320.5 0 L 320.5 400" stroke-opacity="0.2" stroke-miterlimit="10" stroke-dasharray=""/><path fill="none" stroke="rgb(0,0,0)" class="dcg-svg-minor-gridline" paint-order="fill stroke markers" d=" M 340.5 0 L 340.5 400" stroke-opacity="0.2" stroke-miterlimit="10" stroke-dasharray=""/><path fill="none" stroke="rgb(0,0,0)" class="dcg-svg-minor-gridline" paint-order="fill stroke markers" d=" M 360.5 0 L 360.5 400" stroke-opacity="0.2" stroke-miterlimit="10" stroke-dasharray=""/><path fill="none" stroke="rgb(0,0,0)" class="dcg-svg-minor-gridline" paint-order="fill stroke markers" d=" M 380.5 0 L 380.5 400" stroke-opacity="0.2" stroke-miterlimit="10" stroke-dasharray=""/><path fill="none" stroke="rgb(0,0,0)" class="dcg-svg-minor-gridline" paint-order="fill stroke markers" d=" M 0 399.5 L 400 399.5" stroke-opacity="0.2" stroke-miterlimit="10" stroke-dasharray=""/><path fill="none" stroke="rgb(0,0,0)" class="dcg-svg-minor-gridline" paint-order="fill stroke markers" d=" M 0 379.5 L 400 379.5" stroke-opacity="0.2" stroke-miterlimit="10" stroke-dasharray=""/><path fill="none" stroke="rgb(0,0,0)" class="dcg-svg-minor-gridline" paint-order="fill stroke markers" d=" M 0 359.5 L 400 359.5" stroke-opacity="0.2" stroke-miterlimit="10" stroke-dasharray=""/><path fill="none" stroke="rgb(0,0,0)" class="dcg-svg-minor-gridline" paint-order="fill stroke markers" d=" M 0 339.5 L 400 339.5" stroke-opacity="0.2" stroke-miterlimit="10" stroke-dasharray=""/><path fill="none" stroke="rgb(0,0,0)" class="dcg-svg-minor-gridline" paint-order="fill stroke markers" d=" M 0 319.5 L 400 319.5" stroke-opacity="0.2" stroke-miterlimit="10" stroke-dasharray=""/><path fill="none" stroke="rgb(0,0,0)" class="dcg-svg-minor-gridline" paint-order="fill stroke markers" d=" M 0 299.5 L 400 299.5" stroke-opacity="0.2" stroke-miterlimit="10" stroke-dasharray=""/><path fill="none" stroke="rgb(0,0,0)" class="dcg-svg-minor-gridline" paint-order="fill stroke markers" d=" M 0 279.5 L 400 279.5" stroke-opacity="0.2" stroke-miterlimit="10" stroke-dasharray=""/><path fill="none" stroke="rgb(0,0,0)" class="dcg-svg-minor-gridline" paint-order="fill stroke markers" d=" M 0 259.5 L 400 259.5" stroke-opacity="0.2" stroke-miterlimit="10" stroke-dasharray=""/><path fill="none" stroke="rgb(0,0,0)" class="dcg-svg-minor-gridline" paint-order="fill stroke markers" d=" M 0 239.5 L 400 239.5" stroke-opacity="0.2" stroke-miterlimit="10" stroke-dasharray=""/><path fill="none" stroke="rgb(0,0,0)" class="dcg-svg-minor-gridline" paint-order="fill stroke markers" d=" M 0 219.5 L 400 219.5" stroke-opacity="0.2" stroke-miterlimit="10" stroke-dasharray=""/><path fill="none" stroke="rgb(0,0,0)" class="dcg-svg-minor-gridline" paint-order="fill stroke markers" d=" M 0 179.5 L 400 179.5" stroke-opacity="0.2" stroke-miterlimit="10" stroke-dasharray=""/><path fill="none" stroke="rgb(0,0,0)" class="dcg-svg-minor-gridline" paint-order="fill stroke markers" d=" M 0 159.5 L 400 159.5" stroke-opacity="0.2" stroke-miterlimit="10" stroke-dasharray=""/><path fill="none" stroke="rgb(0,0,0)" class="dcg-svg-minor-gridline" paint-order="fill stroke markers" d=" M 0 139.5 L 400 139.5" stroke-opacity="0.2" stroke-miterlimit="10" stroke-dasharray=""/><path fill="none" stroke="rgb(0,0,0)" class="dcg-svg-minor-gridline" paint-order="fill stroke markers" d=" M 0 119.5 L 400 119.5" stroke-opacity="0.2" stroke-miterlimit="10" stroke-dasharray=""/><path fill="none" stroke="rgb(0,0,0)" class="dcg-svg-minor-gridline" paint-order="fill stroke markers" d=" M 0 99.5 L 400 99.5" stroke-opacity="0.2" stroke-miterlimit="10" stroke-dasharray=""/><path fill="none" stroke="rgb(0,0,0)" class="dcg-svg-minor-gridline" paint-order="fill stroke markers" d=" M 0 79.5 L 400 79.5" stroke-opacity="0.2" stroke-miterlimit="10" stroke-dasharray=""/><path fill="none" stroke="rgb(0,0,0)" class="dcg-svg-minor-gridline" paint-order="fill stroke markers" d=" M 0 59.5 L 400 59.5" stroke-opacity="0.2" stroke-miterlimit="10" stroke-dasharray=""/><path fill="none" stroke="rgb(0,0,0)" class="dcg-svg-minor-gridline" paint-order="fill stroke markers" d=" M 0 39.5 L 400 39.5" stroke-opacity="0.2" stroke-miterlimit="10" stroke-dasharray=""/><path fill="none" stroke="rgb(0,0,0)" class="dcg-svg-minor-gridline" paint-order="fill stroke markers" d=" M 0 19.5 L 400 19.5" stroke-opacity="0.2" stroke-miterlimit="10" stroke-dasharray=""/><path fill="none" stroke="rgb(0,0,0)" class="dcg-svg-major-gridline" paint-order="fill stroke markers" d=" M 100.5 0 L 100.5 400" stroke-opacity="0.2500000000000001" stroke-miterlimit="10" stroke-dasharray=""/><path fill="none" stroke="rgb(0,0,0)" class="dcg-svg-major-gridline" paint-order="fill stroke markers" d=" M 300.5 0 L 300.5 400" stroke-opacity="0.2500000000000001" stroke-miterlimit="10" stroke-dasharray=""/><path fill="none" stroke="rgb(0,0,0)" class="dcg-svg-major-gridline" paint-order="fill stroke markers" d=" M 0 399.5 L 400 399.5" stroke-opacity="0.2500000000000001" stroke-miterlimit="10" stroke-dasharray=""/><path fill="none" stroke="rgb(0,0,0)" class="dcg-svg-major-gridline" paint-order="fill stroke markers" d=" M 0 299.5 L 400 299.5" stroke-opacity="0.2500000000000001" stroke-miterlimit="10" stroke-dasharray=""/><path fill="none" stroke="rgb(0,0,0)" class="dcg-svg-major-gridline" paint-order="fill stroke markers" d=" M 0 99.5 L 400 99.5" stroke-opacity="0.2500000000000001" stroke-miterlimit="10" stroke-dasharray=""/></g></g><g id="axis-a584c66f"><g id="yaxis-a584c66f"><title>Y axis</title><g><path fill="none" stroke="rgb(0,0,0)" class="dcg-svg-axis-line" paint-order="fill stroke markers" d=" M 200 0 L 200 400" stroke-opacity="0.9" stroke-miterlimit="10" stroke-width="1.5" stroke-dasharray=""/></g></g><g id="xaxis-a584c66f"><title>X axis</title><g><path fill="none" stroke="rgb(0,0,0)" class="dcg-svg-axis-line" paint-order="fill stroke markers" d=" M 0 200 L 400 200" stroke-opacity="0.9" stroke-miterlimit="10" stroke-width="1.5" stroke-dasharray=""/></g></g><g><g class="dcg-svg-axis-value"><text fill="none" stroke="#ffffff" font-family="Arial" font-size="14px" font-style="normal" font-weight="normal" text-decoration="normal" x="191.10693359375" y="215.4766913419224" text-anchor="middle" stroke-miterlimit="2" stroke-width="3" stroke-dasharray="">0</text><text fill="#000000" stroke="none" font-family="Arial" font-size="14px" font-style="normal" font-weight="normal" text-decoration="normal" x="191.10693359375" y="215.4766913419224" text-anchor="middle">0</text></g><g class="dcg-svg-axis-value dcg-svg-offcenter-axis-value"><text fill="none" stroke="#ffffff" font-family="Arial" font-size="14px" font-style="normal" font-weight="normal" text-decoration="normal" x="13.1171875" y="215.4766913419224" text-anchor="middle" stroke-miterlimit="2" stroke-width="3" stroke-dasharray="">-10</text><text fill="#000000" stroke="none" font-family="Arial" font-size="14px" font-style="normal" font-weight="normal" text-decoration="normal" x="13.1171875" y="215.4766913419224" text-anchor="middle">-10</text></g><g class="dcg-svg-axis-value"><text fill="none" stroke="#ffffff" font-family="Arial" font-size="14px" font-style="normal" font-weight="normal" text-decoration="normal" x="97.6689453125" y="215.4766913419224" text-anchor="middle" stroke-miterlimit="2" stroke-width="3" stroke-dasharray="">-5</text><text fill="#000000" stroke="none" font-family="Arial" font-size="14px" font-style="normal" font-weight="normal" text-decoration="normal" x="97.6689453125" y="215.4766913419224" text-anchor="middle">-5</text></g><g class="dcg-svg-axis-value"><text fill="none" stroke="#ffffff" font-family="Arial" font-size="14px" font-style="normal" font-weight="normal" text-decoration="normal" x="300" y="215.4766913419224" text-anchor="middle" stroke-miterlimit="2" stroke-width="3" stroke-dasharray="">5</text><text fill="#000000" stroke="none" font-family="Arial" font-size="14px" font-style="normal" font-weight="normal" text-decoration="normal" x="300" y="215.4766913419224" text-anchor="middle">5</text></g><g class="dcg-svg-axis-value dcg-svg-offcenter-axis-value"><text fill="none" stroke="#ffffff" font-family="Arial" font-size="14px" font-style="normal" font-weight="normal" text-decoration="normal" x="389.2138671875" y="215.4766913419224" text-anchor="middle" stroke-miterlimit="2" stroke-width="3" stroke-dasharray="">10</text><text fill="#000000" stroke="none" font-family="Arial" font-size="14px" font-style="normal" font-weight="normal" text-decoration="normal" x="389.2138671875" y="215.4766913419224" text-anchor="middle">10</text></g><g class="dcg-svg-axis-value dcg-svg-offcenter-axis-value"><text fill="none" stroke="#ffffff" font-family="Arial" font-size="14px" font-style="normal" font-weight="normal" text-decoration="normal" x="184.8828125" y="393.808" text-anchor="middle" stroke-miterlimit="2" stroke-width="3" stroke-dasharray="">-10</text><text fill="#000000" stroke="none" font-family="Arial" font-size="14px" font-style="normal" font-weight="normal" text-decoration="normal" x="184.8828125" y="393.808" text-anchor="middle">-10</text></g><g class="dcg-svg-axis-value"><text fill="none" stroke="#ffffff" font-family="Arial" font-size="14px" font-style="normal" font-weight="normal" text-decoration="normal" x="188.77587890625" y="303.4766913419224" text-anchor="middle" stroke-miterlimit="2" stroke-width="3" stroke-dasharray="">-5</text><text fill="#000000" stroke="none" font-family="Arial" font-size="14px" font-style="normal" font-weight="normal" text-decoration="normal" x="188.77587890625" y="303.4766913419224" text-anchor="middle">-5</text></g><g class="dcg-svg-axis-value"><text fill="none" stroke="#ffffff" font-family="Arial" font-size="14px" font-style="normal" font-weight="normal" text-decoration="normal" x="191.10693359375" y="103.4766913419224" text-anchor="middle" stroke-miterlimit="2" stroke-width="3" stroke-dasharray="">5</text><text fill="#000000" stroke="none" font-family="Arial" font-size="14px" font-style="normal" font-weight="normal" text-decoration="normal" x="191.10693359375" y="103.4766913419224" text-anchor="middle">5</text></g></g></g></g><g id="expressions-a584c66f"><g id="sketch-a584c66f"><title>Expression 1</title><path fill="#000000" stroke="none" paint-order="stroke fill markers" d="" fill-opacity="0.4"/><g><path fill="none" stroke="#000000" class="dcg-svg-curve" paint-order="fill stroke markers" d=" M 0 212.63590789110413 L 0 212.63590789110413 L 2.5390625 209.28712786584884 L 5.6640625 205.68094762067224 L 9.9609375 201.21526631633822 L 18.06640625 192.86066324967626 L 21.09375 189.27005904735807 L 23.6328125 185.79666615108513 L 25.78125 182.3441199938739 L 27.5390625 179.0044666518713 L 29.1015625 175.4824977264018 L 30.46875 171.8062602740464 L 31.73828125 167.7046174758945 L 32.8125 163.52365030076797 L 33.88671875 158.4427782481693 L 34.86328125 152.73816097974475 L 35.7421875 146.35778843539583 L 36.5234375 139.2856904308283 L 37.3046875 130.3213655619553 L 37.98828125 120.21783869671052 L 38.671875 106.93808709476835 L 39.2578125 91.6788988229402 L 39.84375 70.68293249746671 L 40.33203125 45.992997586916374 L 40.8203125 9.898006472510787 L 40.95809268558905 -5.5" stroke-linecap="round" stroke-linejoin="round" stroke-miterlimit="10" stroke-width="2.5" stroke-dasharray=""/></g><g><path fill="none" stroke="#000000" class="dcg-svg-curve" paint-order="fill stroke markers" d=" M 44.88170833235463 405.5 L 44.88170833235463 405.5 L 45.21484375 373.2349041515311 L 45.703125 342.48220995689996 L 46.2890625 317.28400014271415 L 46.875 299.49422595706824 L 47.55859375 284.3569042731341 L 48.33984375 271.66116173182763 L 49.12109375 262.0969858216088 L 50 253.7889686773762 L 50.87890625 247.24789310360327 L 51.85546875 241.41718438168593 L 52.9296875 236.23793116526932 L 54.1015625 231.63593188729732 L 55.37109375 227.53374249371427 L 56.73828125 223.85707883231498 L 58.30078125 220.33475805661487 L 60.05859375 216.99482212296218 L 62.109375 213.68717472304883 L 64.55078125 210.31785235933972 L 67.48046875 206.80630163426238 L 71.2890625 202.73972324996933 L 82.12890625 191.4562275900097 L 84.9609375 187.91722338089733 L 87.3046875 184.5144155669592 L 89.2578125 181.1828220744287 L 90.91796875 177.8402272611578 L 92.3828125 174.3447826757612 L 93.75 170.44173565309632 L 94.921875 166.41814913861788 L 95.99609375 161.97364272969048 L 96.97265625 157.07316440996604 L 97.94921875 151.0341506797097 L 98.828125 144.22609936819592 L 99.609375 136.61289728215004 L 100.390625 126.85985175759825 L 101.07421875 115.72714560656593 L 101.66015625 103.28635630151075 L 102.24609375 86.75379149238273 L 102.83203125 63.66604528846284 L 103.3203125 36.000213877457554 L 103.80859375 -5.483867078660978 L 103.80871518533223 -5.5" stroke-linecap="round" stroke-linejoin="round" stroke-miterlimit="10" stroke-width="2.5" stroke-dasharray=""/></g><g><path fill="none" stroke="#000000" class="dcg-svg-curve" paint-order="fill stroke markers" d=" M 107.71731099292641 405.5 L 107.71731099292641 405.5 L 108.0078125 376.2532166538199 L 108.49609375 344.53223997537293 L 109.08203125 318.68364113202523 L 109.66796875 300.5117043132145 L 110.3515625 285.0991047468372 L 111.1328125 272.2077071244881 L 111.9140625 262.5172802014131 L 112.79296875 254.11429585590682 L 113.671875 247.50804492844293 L 114.6484375 241.6263501222027 L 115.72265625 236.4074191306887 L 116.89453125 231.77458741980124 L 118.1640625 227.64841799699633 L 119.53125 223.9530648857878 L 121.09375 220.41532173364305 L 122.8515625 217.06300354653303 L 124.90234375 213.74524190980665 L 127.34375 210.36781261897247 L 130.2734375 206.85016889992 L 134.08203125 202.77953632575895 L 145.01953125 191.3874628712973 L 147.8515625 187.83802390834748 L 150.1953125 184.42169417897458 L 152.1484375 181.07354307615498 L 153.80859375 177.7110312048855 L 155.2734375 174.19121275146446 L 156.54296875 170.5633136250899 L 157.71484375 166.5640382103922 L 158.7890625 162.15000945600735 L 159.765625 157.28753856699677 L 160.7421875 151.30170491363424 L 161.62109375 144.56198824552328 L 162.40234375 137.03570384003132 L 163.18359375 127.4101685694223 L 163.8671875 116.44513713186755 L 164.55078125 101.84221654258768 L 165.13671875 84.78909641083713 L 165.625 65.4790433855085 L 166.11328125 38.60173226176133 L 166.6015625 -1.434370198875854 L 166.63355534720398 -5.5" stroke-linecap="round" stroke-linejoin="round" stroke-miterlimit="10" stroke-width="2.5" stroke-dasharray=""/></g><g><path fill="none" stroke="#000000" class="dcg-svg-curve" paint-order="fill stroke markers" d=" M 170.54289587035387 405.5 L 170.54289587035387 405.5 L 170.8984375 371.7302041159164 L 171.38671875 341.4555576162402 L 171.97265625 316.58044540329126 L 172.65625 296.5351013618693 L 173.33984375 282.18577823891127 L 174.12109375 270.05453880564426 L 174.90234375 260.8569200732958 L 175.78125 252.8260121806679 L 176.7578125 245.8504946671409 L 177.734375 240.28956743105033 L 178.80859375 235.32125779292974 L 179.98046875 230.8838524315237 L 181.25 226.91013086944696 L 182.6171875 223.33389474924562 L 184.1796875 219.89466156195985 L 185.9375 216.62158187085345 L 187.98828125 213.36863804069202 L 190.4296875 210.04320346471349 L 193.45703125 206.4555283554121 L 197.36328125 202.32079306614358 L 207.421875 191.88625159067044 L 210.3515625 188.2816824223637 L 212.79296875 184.78874102981726 L 214.74609375 181.50550787916774 L 216.50390625 178.00991498476463 L 217.96875 174.54624308724803 L 219.3359375 170.68420556224004 L 220.5078125 166.70899131307104 L 221.58203125 162.32509435885908 L 222.55859375 157.5001535666411 L 223.53515625 151.56675494902598 L 224.4140625 144.89429760248947 L 225.1953125 137.4533929469522 L 225.9765625 127.95280810830016 L 226.66015625 117.15160444493353 L 227.34375 102.8022813219755 L 227.9296875 86.09630628768605 L 228.515625 62.72012241284747 L 229.00390625 34.637394261118914 L 229.39453125 2.459832010542357 L 229.459948844805 -5.5" stroke-linecap="round" stroke-linejoin="round" stroke-miterlimit="10" stroke-width="2.5" stroke-dasharray=""/></g><g><path fill="none" stroke="#000000" class="dcg-svg-curve" paint-order="fill stroke markers" d=" M 233.37929362890887 405.5 L 233.37929362890887 405.5 L 233.69140625 374.696651507532 L 234.1796875 343.4765795751275 L 234.765625 317.9637651154325 L 235.3515625 299.9888298811878 L 236.03515625 284.7179688399594 L 236.81640625 271.9272141144225 L 237.59765625 262.3016788438135 L 238.4765625 253.94747650643905 L 239.35546875 247.37468734591306 L 240.33203125 241.5191584925891 L 241.40625 236.320582660007 L 242.578125 231.70356337071948 L 243.84765625 227.58968878823842 L 245.21484375 223.90391577056937 L 246.77734375 220.37407646646287 L 248.53515625 217.0281030218241 L 250.5859375 213.71552330580678 L 253.02734375 210.34224720841962 L 255.95703125 206.82772511016918 L 259.765625 202.75917071390626 L 270.703125 191.36415599324016 L 273.53515625 187.81116158566155 L 275.87890625 184.39022448057568 L 277.83203125 181.0364293262066 L 279.4921875 177.6671241814809 L 280.95703125 174.13898626323055 L 282.2265625 170.5012180176294 L 283.3984375 166.48953999298976 L 284.47265625 162.0599668080855 L 285.44921875 157.1781169440875 L 286.42578125 151.16517800329913 L 287.3046875 144.39064697451295 L 288.0859375 136.82010248243174 L 288.8671875 127.12967555935671 L 289.55078125 116.07937409430956 L 290.234375 101.34409404933649 L 290.8203125 84.10916719764043 L 291.30859375 64.5577252044491 L 291.796875 37.28143231832985 L 292.28515625 -3.4855256492199658 L 292.30065418733375 -5.5" stroke-linecap="round" stroke-linejoin="round" stroke-miterlimit="10" stroke-width="2.5" stroke-dasharray=""/></g><g><path fill="none" stroke="#000000" class="dcg-svg-curve" paint-order="fill stroke markers" d=" M 296.2036768811795 405.5 L 296.2036768811795 405.5 L 296.58203125 370.2510303210338 L 297.16796875 335.67133739538195 L 297.75390625 312.58359119146206 L 298.4375 293.73977970455155 L 299.12109375 280.1174534634182 L 299.90234375 268.51303117601253 L 300.68359375 259.66066176541244 L 301.5625 251.89267759215434 L 302.5390625 245.11617598941098 L 303.515625 239.6942383273303 L 304.58984375 234.8352733232308 L 305.76171875 230.4836422426152 L 307.03125 226.5771764604039 L 308.3984375 223.05372235764887 L 309.9609375 219.65830479068597 L 311.71875 216.42058163023603 L 313.76953125 213.19663059510347 L 316.2109375 209.8944830319545 L 319.23828125 206.32470838221764 L 323.2421875 202.1021124385117 L 332.8125 192.19903913583852 L 335.7421875 188.64051826081243 L 338.18359375 185.20874090449746 L 340.234375 181.823093352947 L 341.9921875 178.38749372739593 L 343.45703125 174.9935442274732 L 344.82421875 171.2212538538212 L 345.99609375 167.3515727464615 L 347.0703125 163.09945151857548 L 348.046875 158.4381015854429 L 349.0234375 152.7323640705091 L 349.90234375 146.35056678956565 L 350.68359375 139.27667761817918 L 351.46484375 130.30976202652943 L 352.1484375 120.20288592390926 L 352.83203125 106.91804021172449 L 353.41796875 91.6520279972205 L 354.00390625 70.64497559131723 L 354.4921875 45.93948968838046 L 354.98046875 9.816872337395694 L 355.11739380220286 -5.5" stroke-linecap="round" stroke-linejoin="round" stroke-miterlimit="10" stroke-width="2.5" stroke-dasharray=""/></g><g><path fill="none" stroke="#000000" class="dcg-svg-curve" paint-order="fill stroke markers" d=" M 359.0408695659487 405.5 L 359.0408695659487 405.5 L 359.375 373.1669437892342 L 359.86328125 342.43590792609126 L 360.44921875 317.2523075112998 L 361.03515625 299.47114556910424 L 361.71875 284.34004267849 L 362.5 271.6487293014076 L 363.28125 262.0874161051628 L 364.16015625 253.7815551206265 L 365.0390625 247.24196088704636 L 366.015625 241.412412017838 L 367.08984375 236.23406209725312 L 368.26171875 231.63276520795029 L 369.53125 227.5311224097984 L 370.8984375 223.854884957443 L 372.4609375 220.3329160319735 L 374.21875 216.9932626899709 L 376.26953125 213.68584618347887 L 378.7109375 210.3167089175213 L 381.640625 206.8052972920289 L 385.44921875 202.73881135967443 L 396.2890625 191.4551864655609 L 399.12109375 187.9160248850659 L 400 186.70147479274067" stroke-linecap="round" stroke-linejoin="round" stroke-miterlimit="10" stroke-width="2.5" stroke-dasharray=""/></g></g><g id="sketch-a584c66f"><title>Expression 2</title><path fill="none" stroke="#c74440" class="dcg-svg-point" paint-order="fill stroke markers" d=" M 199.9 199.5686913419224 L 199.9 199.7686913419224 L 200.1 199.7686913419224 L 200.1 199.5686913419224" stroke-linecap="round" stroke-linejoin="round" stroke-miterlimit="10" stroke-width="7.5" stroke-dasharray=""/></g><g id="sketch-a584c66f"><title>Expression 3</title><path fill="none" stroke="#2d70b3" class="dcg-svg-point" paint-order="fill stroke markers" d=" M 137.06814692820413 199.5686913419224 L 137.06814692820413 199.7686913419224 L 137.26814692820412 199.7686913419224 L 137.26814692820412 199.5686913419224" stroke-linecap="round" stroke-linejoin="round" stroke-miterlimit="10" stroke-width="7.5" stroke-dasharray=""/></g><g id="sketch-a584c66f"><title>Expression 4</title><path fill="none" stroke="#388c46" class="dcg-svg-point" paint-order="fill stroke markers" d=" M 74.23629385640828 199.5686913419224 L 74.23629385640828 199.7686913419224 L 74.43629385640827 199.7686913419224 L 74.43629385640827 199.5686913419224" stroke-linecap="round" stroke-linejoin="round" stroke-miterlimit="10" stroke-width="7.5" stroke-dasharray=""/></g><g id="sketch-a584c66f"><title>Expression 5</title><path fill="none" stroke="#6042a6" class="dcg-svg-point" paint-order="fill stroke markers" d=" M 11.404440784612428 199.5686913419224 L 11.404440784612428 199.7686913419224 L 11.604440784612427 199.7686913419224 L 11.604440784612427 199.5686913419224" stroke-linecap="round" stroke-linejoin="round" stroke-miterlimit="10" stroke-width="7.5" stroke-dasharray=""/></g></g><g id="labels-a584c66f"><g transform="rotate(0,0,0) translate(205,205)"><g class="dcg-svg-label"><path fill="none" stroke="#FFF" paint-order="fill stroke markers" d=" M 9.753843548228438 2 L 9.753843548228438 1.9999999999999982 A 5.768103127340669 10.452956989247312 0 0 0 9.753843548228438 21.25 L 8.808252871615217 21.25 L 8.808252871615215 21.25 A 7.0919300745991825 10.452956989247312 0 0 1 8.808252871615215 1.9999999999999982 Z" stroke-linecap="round" stroke-linejoin="round" stroke-miterlimit="10" stroke-width="3" stroke-dasharray=""/><text fill="none" stroke="#FFF" font-family="Symbola, &quot;Times New Roman&quot;, serif" font-size="17.71px" font-style="normal" font-weight="400" text-decoration="normal" x="11.895833969116211" y="17.066288653488158" text-anchor="start" stroke-linecap="round" stroke-linejoin="round" stroke-miterlimit="2" stroke-width="3" stroke-dasharray="">0</text><text fill="none" stroke="#FFF" font-family="Symbola, &quot;Times New Roman&quot;, serif" font-size="17.71px" font-style="normal" font-weight="400" text-decoration="normal" x="21.072917938232422" y="17.066288653488158" text-anchor="start" stroke-linecap="round" stroke-linejoin="round" stroke-miterlimit="2" stroke-width="3" stroke-dasharray="">,</text><text fill="none" stroke="#FFF" font-family="Symbola, &quot;Times New Roman&quot;, serif" font-size="17.71px" font-style="normal" font-weight="400" text-decoration="normal" x="25.5" y="17.066288653488158" text-anchor="start" stroke-linecap="round" stroke-linejoin="round" stroke-miterlimit="2" stroke-width="3" stroke-dasharray=""> </text><text fill="none" stroke="#FFF" font-family="Symbola, &quot;Times New Roman&quot;, serif" font-size="17.71px" font-style="normal" font-weight="400" text-decoration="normal" x="30.08333396911621" y="17.066288653488158" text-anchor="start" stroke-linecap="round" stroke-linejoin="round" stroke-miterlimit="2" stroke-width="3" stroke-dasharray="">0</text><path fill="none" stroke="#FFF" paint-order="fill stroke markers" d=" M 41.246158359120194 2 L 41.246158359120194 2 A 5.768103127340669 10.452956989247312 0 0 1 41.246158359120194 21.25 L 42.191749035733416 21.25 L 42.19174903573342 21.25 A 7.0919300745991825 10.452956989247312 0 0 0 42.19174903573342 1.9999999999999982 Z" stroke-linecap="round" stroke-linejoin="round" stroke-miterlimit="10" stroke-width="3" stroke-dasharray=""/><path fill="rgb(199, 68, 64)" stroke="none" paint-order="stroke fill markers" d=" M 9.753843548228438 2 L 9.753843548228438 1.9999999999999982 A 5.768103127340669 10.452956989247312 0 0 0 9.753843548228438 21.25 L 8.808252871615217 21.25 L 8.808252871615215 21.25 A 7.0919300745991825 10.452956989247312 0 0 1 8.808252871615215 1.9999999999999982 Z"/><text fill="rgb(199, 68, 64)" stroke="none" font-family="Symbola, &quot;Times New Roman&quot;, serif" font-size="17.71px" font-style="normal" font-weight="400" text-decoration="normal" x="11.895833969116211" y="17.066288653488158" text-anchor="start">0</text><text fill="rgb(199, 68, 64)" stroke="none" font-family="Symbola, &quot;Times New Roman&quot;, serif" font-size="17.71px" font-style="normal" font-weight="400" text-decoration="normal" x="21.072917938232422" y="17.066288653488158" text-anchor="start">,</text><text fill="rgb(199, 68, 64)" stroke="none" font-family="Symbola, &quot;Times New Roman&quot;, serif" font-size="17.71px" font-style="normal" font-weight="400" text-decoration="normal" x="25.5" y="17.066288653488158" text-anchor="start"> </text><text fill="rgb(199, 68, 64)" stroke="none" font-family="Symbola, &quot;Times New Roman&quot;, serif" font-size="17.71px" font-style="normal" font-weight="400" text-decoration="normal" x="30.08333396911621" y="17.066288653488158" text-anchor="start">0</text><path fill="rgb(199, 68, 64)" stroke="none" paint-order="stroke fill markers" d=" M 41.246158359120194 2 L 41.246158359120194 2 A 5.768103127340669 10.452956989247312 0 0 1 41.246158359120194 21.25 L 42.191749035733416 21.25 L 42.19174903573342 21.25 A 7.0919300745991825 10.452956989247312 0 0 0 42.19174903573342 1.9999999999999982 Z"/></g></g><g transform="rotate(0,0,0) translate(142,170)"><g class="dcg-svg-label"><path fill="none" stroke="#FFF" paint-order="fill stroke markers" d=" M 9.753843548228438 2 L 9.753843548228438 1.9999999999999982 A 5.768103127340669 10.452956989247312 0 0 0 9.753843548228438 21.25 L 8.808252871615217 21.25 L 8.808252871615215 21.25 A 7.0919300745991825 10.452956989247312 0 0 1 8.808252871615215 1.9999999999999982 Z" stroke-linecap="round" stroke-linejoin="round" stroke-miterlimit="10" stroke-width="3" stroke-dasharray=""/><text fill="none" stroke="#FFF" font-family="Symbola, &quot;Times New Roman&quot;, serif" font-size="17.71px" font-style="normal" font-weight="400" text-decoration="normal" x="11.739583969116211" y="17.066288653488158" text-anchor="start" stroke-linecap="round" stroke-linejoin="round" stroke-miterlimit="2" stroke-width="3" stroke-dasharray="">−</text><text fill="none" stroke="#FFF" font-family="&quot;Times New Roman&quot;, Symbola, serif" font-size="17.71px" font-style="normal" font-weight="400" text-decoration="normal" x="25.5" y="17.066288653488158" text-anchor="start" stroke-linecap="round" stroke-linejoin="round" stroke-miterlimit="2" stroke-width="3" stroke-dasharray="">π</text><text fill="none" stroke="#FFF" font-family="Symbola, &quot;Times New Roman&quot;, serif" font-size="17.71px" font-style="normal" font-weight="400" text-decoration="normal" x="34.44791793823242" y="17.066288653488158" text-anchor="start" stroke-linecap="round" stroke-linejoin="round" stroke-miterlimit="2" stroke-width="3" stroke-dasharray="">,</text><text fill="none" stroke="#FFF" font-family="Symbola, &quot;Times New Roman&quot;, serif" font-size="17.71px" font-style="normal" font-weight="400" text-decoration="normal" x="38.875" y="17.066288653488158" text-anchor="start" stroke-linecap="round" stroke-linejoin="round" stroke-miterlimit="2" stroke-width="3" stroke-dasharray=""> </text><text fill="none" stroke="#FFF" font-family="Symbola, &quot;Times New Roman&quot;, serif" font-size="17.71px" font-style="normal" font-weight="400" text-decoration="normal" x="43.458335876464844" y="17.066288653488158" text-anchor="start" stroke-linecap="round" stroke-linejoin="round" stroke-miterlimit="2" stroke-width="3" stroke-dasharray="">0</text><path fill="none" stroke="#FFF" paint-order="fill stroke markers" d=" M 54.621158359120194 2 L 54.621158359120194 2 A 5.768103127340669 10.452956989247312 0 0 1 54.621158359120194 21.25 L 55.566749035733416 21.25 L 55.56674903573342 21.25 A 7.0919300745991825 10.452956989247312 0 0 0 55.56674903573342 1.9999999999999982 Z" stroke-linecap="round" stroke-linejoin="round" stroke-miterlimit="10" stroke-width="3" stroke-dasharray=""/><path fill="rgb(45, 112, 179)" stroke="none" paint-order="stroke fill markers" d=" M 9.753843548228438 2 L 9.753843548228438 1.9999999999999982 A 5.768103127340669 10.452956989247312 0 0 0 9.753843548228438 21.25 L 8.808252871615217 21.25 L 8.808252871615215 21.25 A 7.0919300745991825 10.452956989247312 0 0 1 8.808252871615215 1.9999999999999982 Z"/><text fill="rgb(45, 112, 179)" stroke="none" font-family="Symbola, &quot;Times New Roman&quot;, serif" font-size="17.71px" font-style="normal" font-weight="400" text-decoration="normal" x="11.739583969116211" y="17.066288653488158" text-anchor="start">−</text><text fill="rgb(45, 112, 179)" stroke="none" font-family="&quot;Times New Roman&quot;, Symbola, serif" font-size="17.71px" font-style="normal" font-weight="400" text-decoration="normal" x="25.5" y="17.066288653488158" text-anchor="start">π</text><text fill="rgb(45, 112, 179)" stroke="none" font-family="Symbola, &quot;Times New Roman&quot;, serif" font-size="17.71px" font-style="normal" font-weight="400" text-decoration="normal" x="34.44791793823242" y="17.066288653488158" text-anchor="start">,</text><text fill="rgb(45, 112, 179)" stroke="none" font-family="Symbola, &quot;Times New Roman&quot;, serif" font-size="17.71px" font-style="normal" font-weight="400" text-decoration="normal" x="38.875" y="17.066288653488158" text-anchor="start"> </text><text fill="rgb(45, 112, 179)" stroke="none" font-family="Symbola, &quot;Times New Roman&quot;, serif" font-size="17.71px" font-style="normal" font-weight="400" text-decoration="normal" x="43.458335876464844" y="17.066288653488158" text-anchor="start">0</text><path fill="rgb(45, 112, 179)" stroke="none" paint-order="stroke fill markers" d=" M 54.621158359120194 2 L 54.621158359120194 2 A 5.768103127340669 10.452956989247312 0 0 1 54.621158359120194 21.25 L 55.566749035733416 21.25 L 55.56674903573342 21.25 A 7.0919300745991825 10.452956989247312 0 0 0 55.56674903573342 1.9999999999999982 Z"/></g></g><g transform="rotate(0,0,0) translate(79,205)"><g class="dcg-svg-label"><path fill="none" stroke="#FFF" paint-order="fill stroke markers" d=" M 9.753843548228438 2 L 9.753843548228438 1.9999999999999982 A 5.768103127340669 10.452956989247312 0 0 0 9.753843548228438 21.25 L 8.808252871615217 21.25 L 8.808252871615215 21.25 A 7.0919300745991825 10.452956989247312 0 0 1 8.808252871615215 1.9999999999999982 Z" stroke-linecap="round" stroke-linejoin="round" stroke-miterlimit="10" stroke-width="3" stroke-dasharray=""/><text fill="none" stroke="#FFF" font-family="Symbola, &quot;Times New Roman&quot;, serif" font-size="17.71px" font-style="normal" font-weight="400" text-decoration="normal" x="11.739583969116211" y="17.066288653488158" text-anchor="start" stroke-linecap="round" stroke-linejoin="round" stroke-miterlimit="2" stroke-width="3" stroke-dasharray="">−</text><text fill="none" stroke="#FFF" font-family="Symbola, &quot;Times New Roman&quot;, serif" font-size="17.71px" font-style="normal" font-weight="400" text-decoration="normal" x="25.65625" y="17.066288653488158" text-anchor="start" stroke-linecap="round" stroke-linejoin="round" stroke-miterlimit="2" stroke-width="3" stroke-dasharray="">2</text><text fill="none" stroke="#FFF" font-family="&quot;Times New Roman&quot;, Symbola, serif" font-size="17.71px" font-style="normal" font-weight="400" text-decoration="normal" x="34.833335876464844" y="17.066288653488158" text-anchor="start" stroke-linecap="round" stroke-linejoin="round" stroke-miterlimit="2" stroke-width="3" stroke-dasharray="">π</text><text fill="none" stroke="#FFF" font-family="Symbola, &quot;Times New Roman&quot;, serif" font-size="17.71px" font-style="normal" font-weight="400" text-decoration="normal" x="43.78125" y="17.066288653488158" text-anchor="start" stroke-linecap="round" stroke-linejoin="round" stroke-miterlimit="2" stroke-width="3" stroke-dasharray="">,</text><text fill="none" stroke="#FFF" font-family="Symbola, &quot;Times New Roman&quot;, serif" font-size="17.71px" font-style="normal" font-weight="400" text-decoration="normal" x="48.208335876464844" y="17.066288653488158" text-anchor="start" stroke-linecap="round" stroke-linejoin="round" stroke-miterlimit="2" stroke-width="3" stroke-dasharray=""> </text><text fill="none" stroke="#FFF" font-family="Symbola, &quot;Times New Roman&quot;, serif" font-size="17.71px" font-style="normal" font-weight="400" text-decoration="normal" x="52.79166793823242" y="17.066288653488158" text-anchor="start" stroke-linecap="round" stroke-linejoin="round" stroke-miterlimit="2" stroke-width="3" stroke-dasharray="">0</text><path fill="none" stroke="#FFF" paint-order="fill stroke markers" d=" M 63.95449042088777 2 L 63.95449042088777 2 A 5.768103127340669 10.452956989247312 0 0 1 63.95449042088777 21.25 L 64.900081097501 21.25 L 64.900081097501 21.25 A 7.0919300745991825 10.452956989247312 0 0 0 64.900081097501 1.9999999999999982 Z" stroke-linecap="round" stroke-linejoin="round" stroke-miterlimit="10" stroke-width="3" stroke-dasharray=""/><path fill="rgb(56, 140, 70)" stroke="none" paint-order="stroke fill markers" d=" M 9.753843548228438 2 L 9.753843548228438 1.9999999999999982 A 5.768103127340669 10.452956989247312 0 0 0 9.753843548228438 21.25 L 8.808252871615217 21.25 L 8.808252871615215 21.25 A 7.0919300745991825 10.452956989247312 0 0 1 8.808252871615215 1.9999999999999982 Z"/><text fill="rgb(56, 140, 70)" stroke="none" font-family="Symbola, &quot;Times New Roman&quot;, serif" font-size="17.71px" font-style="normal" font-weight="400" text-decoration="normal" x="11.739583969116211" y="17.066288653488158" text-anchor="start">−</text><text fill="rgb(56, 140, 70)" stroke="none" font-family="Symbola, &quot;Times New Roman&quot;, serif" font-size="17.71px" font-style="normal" font-weight="400" text-decoration="normal" x="25.65625" y="17.066288653488158" text-anchor="start">2</text><text fill="rgb(56, 140, 70)" stroke="none" font-family="&quot;Times New Roman&quot;, Symbola, serif" font-size="17.71px" font-style="normal" font-weight="400" text-decoration="normal" x="34.833335876464844" y="17.066288653488158" text-anchor="start">π</text><text fill="rgb(56, 140, 70)" stroke="none" font-family="Symbola, &quot;Times New Roman&quot;, serif" font-size="17.71px" font-style="normal" font-weight="400" text-decoration="normal" x="43.78125" y="17.066288653488158" text-anchor="start">,</text><text fill="rgb(56, 140, 70)" stroke="none" font-family="Symbola, &quot;Times New Roman&quot;, serif" font-size="17.71px" font-style="normal" font-weight="400" text-decoration="normal" x="48.208335876464844" y="17.066288653488158" text-anchor="start"> </text><text fill="rgb(56, 140, 70)" stroke="none" font-family="Symbola, &quot;Times New Roman&quot;, serif" font-size="17.71px" font-style="normal" font-weight="400" text-decoration="normal" x="52.79166793823242" y="17.066288653488158" text-anchor="start">0</text><path fill="rgb(56, 140, 70)" stroke="none" paint-order="stroke fill markers" d=" M 63.95449042088777 2 L 63.95449042088777 2 A 5.768103127340669 10.452956989247312 0 0 1 63.95449042088777 21.25 L 64.900081097501 21.25 L 64.900081097501 21.25 A 7.0919300745991825 10.452956989247312 0 0 0 64.900081097501 1.9999999999999982 Z"/></g></g><g transform="rotate(0,0,0) translate(17,170)"><g class="dcg-svg-label"><path fill="none" stroke="#FFF" paint-order="fill stroke markers" d=" M 9.753843548228438 2 L 9.753843548228438 1.9999999999999982 A 5.768103127340669 10.452956989247312 0 0 0 9.753843548228438 21.25 L 8.808252871615217 21.25 L 8.808252871615215 21.25 A 7.0919300745991825 10.452956989247312 0 0 1 8.808252871615215 1.9999999999999982 Z" stroke-linecap="round" stroke-linejoin="round" stroke-miterlimit="10" stroke-width="3" stroke-dasharray=""/><text fill="none" stroke="#FFF" font-family="Symbola, &quot;Times New Roman&quot;, serif" font-size="17.71px" font-style="normal" font-weight="400" text-decoration="normal" x="11.739583969116211" y="17.066288653488158" text-anchor="start" stroke-linecap="round" stroke-linejoin="round" stroke-miterlimit="2" stroke-width="3" stroke-dasharray="">−</text><text fill="none" stroke="#FFF" font-family="Symbola, &quot;Times New Roman&quot;, serif" font-size="17.71px" font-style="normal" font-weight="400" text-decoration="normal" x="25.65625" y="17.066288653488158" text-anchor="start" stroke-linecap="round" stroke-linejoin="round" stroke-miterlimit="2" stroke-width="3" stroke-dasharray="">3</text><text fill="none" stroke="#FFF" font-family="&quot;Times New Roman&quot;, Symbola, serif" font-size="17.71px" font-style="normal" font-weight="400" text-decoration="normal" x="34.833335876464844" y="17.066288653488158" text-anchor="start" stroke-linecap="round" stroke-linejoin="round" stroke-miterlimit="2" stroke-width="3" stroke-dasharray="">π</text><text fill="none" stroke="#FFF" font-family="Symbola, &quot;Times New Roman&quot;, serif" font-size="17.71px" font-style="normal" font-weight="400" text-decoration="normal" x="43.78125" y="17.066288653488158" text-anchor="start" stroke-linecap="round" stroke-linejoin="round" stroke-miterlimit="2" stroke-width="3" stroke-dasharray="">,</text><text fill="none" stroke="#FFF" font-family="Symbola, &quot;Times New Roman&quot;, serif" font-size="17.71px" font-style="normal" font-weight="400" text-decoration="normal" x="48.208335876464844" y="17.066288653488158" text-anchor="start" stroke-linecap="round" stroke-linejoin="round" stroke-miterlimit="2" stroke-width="3" stroke-dasharray=""> </text><text fill="none" stroke="#FFF" font-family="Symbola, &quot;Times New Roman&quot;, serif" font-size="17.71px" font-style="normal" font-weight="400" text-decoration="normal" x="52.79166793823242" y="17.066288653488158" text-anchor="start" stroke-linecap="round" stroke-linejoin="round" stroke-miterlimit="2" stroke-width="3" stroke-dasharray="">0</text><path fill="none" stroke="#FFF" paint-order="fill stroke markers" d=" M 63.95449042088777 2 L 63.95449042088777 2 A 5.768103127340669 10.452956989247312 0 0 1 63.95449042088777 21.25 L 64.900081097501 21.25 L 64.900081097501 21.25 A 7.0919300745991825 10.452956989247312 0 0 0 64.900081097501 1.9999999999999982 Z" stroke-linecap="round" stroke-linejoin="round" stroke-miterlimit="10" stroke-width="3" stroke-dasharray=""/><path fill="rgb(96, 66, 166)" stroke="none" paint-order="stroke fill markers" d=" M 9.753843548228438 2 L 9.753843548228438 1.9999999999999982 A 5.768103127340669 10.452956989247312 0 0 0 9.753843548228438 21.25 L 8.808252871615217 21.25 L 8.808252871615215 21.25 A 7.0919300745991825 10.452956989247312 0 0 1 8.808252871615215 1.9999999999999982 Z"/><text fill="rgb(96, 66, 166)" stroke="none" font-family="Symbola, &quot;Times New Roman&quot;, serif" font-size="17.71px" font-style="normal" font-weight="400" text-decoration="normal" x="11.739583969116211" y="17.066288653488158" text-anchor="start">−</text><text fill="rgb(96, 66, 166)" stroke="none" font-family="Symbola, &quot;Times New Roman&quot;, serif" font-size="17.71px" font-style="normal" font-weight="400" text-decoration="normal" x="25.65625" y="17.066288653488158" text-anchor="start">3</text><text fill="rgb(96, 66, 166)" stroke="none" font-family="&quot;Times New Roman&quot;, Symbola, serif" font-size="17.71px" font-style="normal" font-weight="400" text-decoration="normal" x="34.833335876464844" y="17.066288653488158" text-anchor="start">π</text><text fill="rgb(96, 66, 166)" stroke="none" font-family="Symbola, &quot;Times New Roman&quot;, serif" font-size="17.71px" font-style="normal" font-weight="400" text-decoration="normal" x="43.78125" y="17.066288653488158" text-anchor="start">,</text><text fill="rgb(96, 66, 166)" stroke="none" font-family="Symbola, &quot;Times New Roman&quot;, serif" font-size="17.71px" font-style="normal" font-weight="400" text-decoration="normal" x="48.208335876464844" y="17.066288653488158" text-anchor="start"> </text><text fill="rgb(96, 66, 166)" stroke="none" font-family="Symbola, &quot;Times New Roman&quot;, serif" font-size="17.71px" font-style="normal" font-weight="400" text-decoration="normal" x="52.79166793823242" y="17.066288653488158" text-anchor="start">0</text><path fill="rgb(96, 66, 166)" stroke="none" paint-order="stroke fill markers" d=" M 63.95449042088777 2 L 63.95449042088777 2 A 5.768103127340669 10.452956989247312 0 0 1 63.95449042088777 21.25 L 64.900081097501 21.25 L 64.900081097501 21.25 A 7.0919300745991825 10.452956989247312 0 0 0 64.900081097501 1.9999999999999982 Z"/></g></g></g><g id="labels-a584c66f"/></g></svg>